<svg width="214" height="214" viewBox="0 0 214 214" fill="none" xmlns="http://www.w3.org/2000/svg">
<g clip-path="url(#clip0)">
<path d="M9.64254 193.661C9.59409 193.723 9.59409 193.723 9.59409 193.723C9.47706 194.133 9.75582 194.549 10.1658 194.666C10.5758 194.783 10.9432 194.567 11.1087 194.095C11.143 193.921 11.1289 193.81 11.1632 193.636C10.6078 193.707 10.1494 193.653 9.64254 193.661Z" fill="#E6EBF2"/>
<path d="M11.7089 195.26C11.6746 195.434 11.7999 195.531 11.9109 195.516C11.9735 195.565 12.1189 195.377 12.1673 195.314C12.2158 195.252 12.139 195.092 12.0764 195.044C12.0138 194.995 11.7432 195.086 11.7089 195.26Z" fill="#E6EBF2"/>
<path d="M13.6995 194.498C13.6511 194.561 13.7077 195.005 13.8329 195.102C14.0066 195.137 14.2489 194.823 14.3458 194.698C14.3942 194.636 14.2407 194.317 14.1296 194.331C14.0186 194.345 13.7964 194.373 13.6995 194.498Z" fill="#E6EBF2"/>
<path d="M8.9548 199.336C8.87206 199.572 9.18511 199.814 9.24772 199.863C9.4214 199.897 9.62938 199.758 9.72629 199.633C9.77474 199.57 9.62119 199.251 9.55858 199.203C9.43335 199.106 9.03754 199.1 8.9548 199.336Z" fill="#E6EBF2"/>
<path d="M0.910836 195.113C0.793802 195.523 1.08673 196.05 1.4967 196.167C1.90667 196.284 2.27416 196.068 2.39119 195.658C2.55668 195.185 2.32636 194.707 1.91639 194.59C1.56904 194.521 1.04203 194.814 0.910836 195.113Z" fill="#E6EBF2"/>
<path d="M2.57765 198.004C2.44646 198.303 2.92725 198.976 3.21199 198.996C3.43412 198.967 3.67636 198.654 3.75911 198.418C3.8903 198.119 3.84782 197.786 3.43785 197.669C3.0905 197.6 2.74314 197.532 2.57765 198.004Z" fill="#E6EBF2"/>
<path d="M16.2948 193.603C16.3231 193.825 16.7129 194.227 16.9008 194.372C17.1512 194.566 17.5187 194.35 17.6357 193.94C17.67 193.766 17.6559 193.655 17.6417 193.544C17.1974 193.601 16.739 193.547 16.2948 193.603Z" fill="#E6EBF2"/>
<path d="M47.6754 188.755C47.627 188.818 47.627 188.818 47.5785 188.88C47.5099 189.228 47.6776 189.658 48.0876 189.775C48.4491 189.955 48.9277 189.724 48.9963 189.377C49.0648 189.03 48.9113 188.711 48.5982 188.468C48.2792 188.622 48.0086 188.713 47.6754 188.755Z" fill="#E6EBF2"/>
<path d="M26.6592 198.32C26.6107 198.383 26.6532 198.716 26.8895 198.799C27.1258 198.881 27.3054 198.52 27.3397 198.346C27.3882 198.284 27.2972 198.013 27.1235 197.979C26.9014 198.007 26.6935 198.146 26.6592 198.32Z" fill="#E6EBF2"/>
<path d="M43.1882 191.19C42.9117 191.677 42.9683 192.121 43.2471 192.537C43.5885 193.002 43.9843 193.008 44.4144 192.84C44.7334 192.686 45.622 192.573 45.6622 192.003C45.7025 191.434 45.1956 191.442 45.0078 191.297C44.4785 190.687 43.5132 190.641 43.1882 191.19Z" fill="#E6EBF2"/>
<path d="M54.9604 186.585C55.0231 186.633 55.0857 186.682 55.1968 186.668C55.2594 186.716 55.5784 186.563 55.5642 186.452L55.5501 186.34C55.3906 186.417 55.12 186.508 54.9604 186.585Z" fill="#E6EBF2"/>
<path d="M37.8092 191.932C37.7264 192.169 37.9769 192.362 38.0395 192.411C38.2132 192.445 38.4212 192.306 38.5181 192.181C38.5665 192.118 38.413 191.799 38.413 191.799C38.3019 191.813 37.9545 191.744 37.8092 191.932Z" fill="#E6EBF2"/>
<path d="M23.4107 193.204C23.3764 193.377 23.4673 193.648 23.641 193.682C23.8147 193.717 24.0711 193.515 24.057 193.403C24.1054 193.341 24.0912 193.23 24.0771 193.119C23.8549 193.147 23.6328 193.175 23.4107 193.204Z" fill="#E6EBF2"/>
<path d="M35.8511 194.722C35.5321 194.875 35.3383 195.126 35.4919 195.445C35.6253 196.049 36.0837 196.103 36.6532 196.143C36.9297 195.657 37.2831 195.329 36.9417 194.865C36.6286 194.623 36.2328 194.617 35.8511 194.722Z" fill="#E6EBF2"/>
<path d="M-1.82769 202.404C-1.99318 202.876 -1.76284 203.355 -1.35287 203.472C-0.942903 203.589 -0.415896 203.296 -0.347315 202.949C-0.278733 202.601 -0.57168 202.074 -0.870584 201.943C-1.32901 201.889 -1.64804 202.042 -1.82769 202.404Z" fill="#E6EBF2"/>
<path d="M3.72154 202.995C3.57618 203.182 3.7521 204.119 4.16207 204.236C4.57204 204.353 5.09084 203.554 5.22203 203.255C5.30478 203.018 5.1229 202.477 4.76138 202.298C4.35141 202.181 3.90118 202.633 3.72154 202.995Z" fill="#E6EBF2"/>
<path d="M-1.12514 194.639C-1.70878 194.488 -2.55482 194.934 -2.75459 195.58C-2.87163 195.99 -2.46762 196.503 -1.99504 196.669C-1.34878 196.868 -0.75917 196.624 -0.559394 195.978C-0.470682 195.346 -0.715169 194.756 -1.12514 194.639Z" fill="#E6EBF2"/>
<path d="M90.7706 119.093C124.514 75.4872 116.519 12.7834 72.9135 -20.9601C29.3079 -54.7035 -33.396 -46.7086 -67.1394 -3.10296C-100.883 40.5027 -92.8879 103.207 -49.2823 136.95C-5.67664 170.693 57.0272 162.698 90.7706 119.093Z" fill="#E6EBF2"/>
<path d="M88.7518 114.329C88.8062 113.87 88.277 113.261 87.6449 113.172C86.8391 113.049 86.3747 113.39 86.2517 114.196C86.1146 114.891 86.4701 115.466 86.9911 115.569C87.7343 115.644 88.6631 114.961 88.7518 114.329Z" fill="#D3DAE0"/>
<path d="M92.056 116.786C92.0217 116.959 92.0985 117.119 92.1752 117.278C92.5629 116.777 92.9505 116.277 93.2755 115.727C92.7201 115.798 92.1104 116.327 92.056 116.786Z" fill="#D3DAE0"/>
<path d="M-2.62722 151.433C-2.83518 151.572 -3.02899 151.822 -3.11174 152.059C-3.66706 152.13 -4.22238 152.2 -4.20003 152.818C-4.17768 153.436 -3.76771 153.553 -3.26084 153.545C-3.24667 153.656 -3.16991 153.816 -3.10729 153.864C-2.68913 154.488 -1.36232 154.714 -0.689965 154.233C-0.0176062 153.752 0.0144593 152.676 -0.605702 151.796C-1.08648 151.123 -1.9407 151.063 -2.62722 151.433Z" fill="#D3DAE0"/>
<path d="M59.7995 124.059C59.7369 124.011 59.5289 124.15 59.5289 124.15C59.5431 124.261 59.5088 124.435 59.634 124.532C59.7592 124.629 59.7935 124.455 59.953 124.378C59.9389 124.267 59.9247 124.156 59.7995 124.059Z" fill="#D3DAE0"/>
<path d="M14.6435 151.883C14.5466 152.008 14.3871 152.085 14.2902 152.21C13.9025 152.711 13.8138 153.343 14.1209 153.981C14.428 154.619 14.8521 154.847 15.6781 154.685C16.504 154.524 17.0026 154.008 17.4245 153.334C17.8345 153.451 18.1334 153.582 18.4808 153.651C19.5087 153.745 19.9932 153.119 19.581 152.1C19.2739 151.461 18.7246 151.136 18.0723 151.332C17.9471 151.236 17.7734 151.201 17.7734 151.201C17.4887 151.181 16.7738 151.329 16.58 151.579C16.5174 151.531 16.5659 151.468 16.5659 151.468C16.5778 150.677 16.2506 150.323 15.5559 150.186C15.3822 150.152 15.1944 150.006 15.0691 149.909C14.5198 149.584 14.0755 149.641 13.8332 149.954C13.5567 150.441 13.787 150.919 14.4959 151.168C14.5585 151.216 14.6696 151.202 14.718 151.139C14.809 151.41 14.9483 151.618 14.6435 151.883ZM16.7276 152.294C16.7902 152.342 16.7902 152.342 16.7276 152.294V152.294Z" fill="#D3DAE0"/>
<path d="M2.62903 156.801C3.29542 156.716 3.80826 156.312 4.00804 155.665C4.19365 154.908 3.96333 154.43 3.41397 154.105C3.46242 154.042 3.51088 153.979 3.44827 153.931C3.58543 153.236 3.07633 152.342 2.31901 152.156C1.61014 151.908 0.49351 152.445 0.356346 153.14C0.15657 153.786 0.366768 154.55 0.81922 155C0.784929 155.173 0.750634 155.347 0.827408 155.507C0.605279 155.535 0.397312 155.674 0.189343 155.814C-0.323498 156.218 -0.426367 156.739 -0.181884 157.328C0.623893 157.451 1.47812 157.512 2.33235 157.572C2.51199 157.211 2.59474 156.974 2.62903 156.801Z" fill="#D3DAE0"/>
<path d="M80.532 112.273C80.4977 112.446 80.6654 112.876 80.9017 112.959C81.1379 113.042 81.5256 112.541 81.4972 112.319C81.5315 112.145 81.2669 111.84 81.0448 111.869C80.8711 111.834 80.5662 112.099 80.532 112.273Z" fill="#D3DAE0"/>
<path d="M44.1328 151.678C45.0638 151.898 45.8957 151.34 46.1499 150.236C46.1983 150.173 46.1842 150.062 46.1842 150.062C46.4145 150.54 46.7417 150.894 47.2143 151.059C47.6869 151.225 48.2482 150.758 48.448 150.112C48.6336 149.355 48.278 148.779 47.4581 148.545C46.8744 148.394 46.1253 148.715 46.0083 149.125C45.9598 149.188 46.0224 149.236 45.974 149.299C45.7437 148.82 45.3054 148.481 44.7844 148.378C44.6107 148.344 44.3885 148.372 44.2149 148.338C44.3602 148.15 44.443 147.914 44.4631 147.629C44.6226 147.552 44.768 147.364 44.8023 147.191C44.9193 146.781 44.6264 146.254 44.2507 145.963C43.8608 145.561 43.1035 145.376 42.4028 145.634C41.9243 145.865 41.5083 146.143 40.9448 145.707C40.5692 145.417 40.1674 145.806 39.8767 146.182C40.0727 146.834 40.4968 147.062 40.9754 146.832C41.3309 147.407 41.4986 147.838 41.8259 148.191C42.1531 148.544 42.8478 148.681 43.4031 148.611C43.2093 148.861 43.0297 149.223 42.9126 149.633C42.9089 150.931 43.1392 151.41 44.1328 151.678Z" fill="#D3DAE0"/>
<path d="M32.0408 144.924C32.3539 145.166 32.7698 144.888 32.8869 144.478C33.0524 144.005 32.8988 143.686 32.4404 143.632C32.1556 143.612 31.3983 143.426 31.2328 143.898C31.1784 144.357 31.7904 144.73 32.0408 144.924Z" fill="#D3DAE0"/>
<path d="M33.0125 144.574C32.847 145.047 33.0774 145.526 33.5499 145.691C34.071 145.794 34.6606 145.549 34.715 145.091C34.8321 144.681 34.4907 144.217 33.9696 144.114C33.6081 143.934 33.1296 144.164 33.0125 144.574Z" fill="#D3DAE0"/>
<path d="M22.2713 136.463C22.3198 136.4 22.1662 136.081 21.9926 136.047C21.8189 136.013 21.6251 136.263 21.5282 136.389C21.4797 136.451 21.5364 136.895 21.7727 136.978C22.009 137.061 22.237 136.637 22.2713 136.463Z" fill="#D3DAE0"/>
<path d="M19.5133 147.142C19.5476 146.969 19.4567 146.698 19.3315 146.601C19.2062 146.504 18.762 146.561 18.6792 146.797C18.5965 147.034 19.0206 147.262 19.1459 147.359C19.1459 147.359 19.479 147.316 19.5133 147.142Z" fill="#D3DAE0"/>
<path d="M32.9618 152.143C32.7963 152.616 33.0892 153.143 33.4992 153.26C33.9092 153.377 34.4362 153.084 34.6017 152.612C34.6703 152.264 34.6278 151.931 34.2663 151.751C34.5368 151.66 34.6822 151.473 34.7649 151.236C34.8477 151 34.6516 150.348 34.4839 149.918C34.5324 149.855 34.6435 149.841 34.6919 149.778C34.7344 150.111 34.9364 150.368 35.3121 150.659C36.2997 151.323 37.2367 151.147 37.7212 150.521C38.0119 150.145 38.0238 149.353 37.7794 148.764C38.1752 148.77 38.5427 148.554 38.6597 148.144C38.7767 147.734 38.4979 147.318 38.0254 147.152C37.8435 146.611 37.4395 146.098 36.9669 145.933C36.1954 145.636 35.4262 146.242 35.0952 147.187C34.9297 147.66 35.0348 148.041 35.1884 148.361L35.1399 148.423C35.0691 147.868 34.6308 147.529 33.9219 147.28C33.6856 147.198 33.4009 147.178 33.1788 147.206C33.2131 147.032 33.2958 146.796 33.2675 146.574C33.0856 146.033 32.2657 145.799 31.7387 146.091C31.2601 146.322 30.9008 147.045 31.0201 147.538C31.1677 148.252 31.8624 148.39 32.1471 148.41C32.0584 149.042 32.3655 149.68 32.8664 150.067C32.818 150.13 32.7837 150.304 32.7352 150.366C32.5839 150.95 32.8627 151.366 33.5715 151.614C33.1414 151.782 32.9961 151.97 32.9618 152.143Z" fill="#D3DAE0"/>
<path d="M27.8333 147.774C28.5422 148.023 29.2913 147.701 29.4426 147.118C29.6908 146.409 29.2928 145.5 28.7092 145.349C28.5355 145.315 28.4244 145.329 28.2164 145.468C28.3476 145.169 28.3678 144.885 28.3395 144.662C28.2202 144.17 28.1009 143.677 27.4204 143.651C27.0872 143.693 26.7398 143.625 26.4551 143.605L26.5036 143.542C26.7033 142.896 25.9438 141.807 25.1097 141.462C24.4008 141.214 23.5548 141.661 23.3207 142.481C22.9554 143.599 23.3251 144.286 24.3955 144.714C24.5692 144.748 24.7429 144.782 24.9166 144.817C24.9934 144.976 25.1812 145.122 25.3064 145.218C25.6053 145.35 25.9042 145.481 26.0578 145.8C26.3365 146.216 26.6981 146.395 27.0939 146.401C27.0454 146.464 26.997 146.527 27.0111 146.638C27.0536 146.971 27.4233 147.657 27.8333 147.774Z" fill="#D3DAE0"/>
<path d="M61.4017 137.512C60.9716 137.679 60.8851 139.214 60.9619 139.374C61.1012 139.582 61.4911 139.983 61.3114 140.345C61.1519 140.422 60.9924 140.499 60.8471 140.686C60.528 140.84 60.209 140.993 60.0919 141.403C59.9891 141.924 59.638 143.154 60.2641 143.639C60.8902 144.123 61.2011 143.463 61.6938 143.344C62.138 143.287 62.5883 142.835 62.6285 142.265C63.0728 142.208 63.4343 142.388 63.9471 141.984C64.1067 141.907 64.1894 141.671 64.2379 141.608C64.5487 140.948 64.3668 140.407 63.9285 140.068C64.185 139.866 64.4898 139.601 64.6553 139.128C64.9863 138.183 64.1783 137.158 63.4635 137.305C62.7002 137.515 62.6457 137.974 62.4579 137.828C62.2358 137.857 61.8802 137.281 61.4017 137.512Z" fill="#D3DAE0"/>
<path d="M72.0927 136.375C72.0785 136.264 72.1128 136.09 72.0986 135.979C72.1046 135.583 71.7774 135.23 71.4017 134.939C71.7692 134.723 72.0599 134.347 72.1911 134.048C72.405 133.513 72.1605 132.924 71.7222 132.584C71.7707 132.522 71.8192 132.459 71.805 132.348C71.922 131.938 71.6432 131.522 71.2333 131.405C70.7607 131.24 70.2337 131.533 70.1167 131.943C69.5613 132.013 69.1596 132.403 68.9456 132.938C68.6489 133.71 69.1237 134.778 69.8952 135.075C69.5561 135.513 69.2937 136.111 69.524 136.589C69.7059 137.131 70.0815 137.421 70.3804 137.553C70.332 137.615 70.3462 137.726 70.2977 137.789C70.1807 138.199 70.2232 138.532 70.3626 138.74C71.2429 138.12 72.0606 137.451 72.9409 136.831C72.7046 136.748 72.44 136.443 72.0927 136.375Z" fill="#D3DAE0"/>
<path d="M68.5001 138.3C68.4457 138.758 68.7244 139.174 69.1829 139.229C69.6413 139.283 70.1683 138.99 70.2227 138.532C70.2771 138.073 70.0125 137.768 69.5541 137.714C69.0815 137.549 68.5545 137.841 68.5001 138.3Z" fill="#D3DAE0"/>
<path d="M38.7415 144.803C38.9756 143.983 38.6342 143.519 37.8143 143.285C37.1196 143.148 36.4189 143.406 36.316 143.927C36.2273 144.559 36.8474 145.44 37.5563 145.688C38.0773 145.791 38.5417 145.449 38.7415 144.803Z" fill="#D3DAE0"/>
<path d="M58.0215 146.408C57.6943 146.055 57.3126 146.16 56.9451 146.376C56.7856 146.453 56.6261 146.53 56.4666 146.607C56.5695 146.085 56.2281 145.621 55.7696 145.567C55.2486 145.464 54.7842 145.805 54.6814 146.326C54.5643 146.736 54.8431 147.152 55.2046 147.332C54.9967 147.471 54.8028 147.722 54.8453 148.055C55.9135 147.58 56.9675 146.994 58.0841 146.457C58.0841 146.457 58.0841 146.457 58.0215 146.408Z" fill="#D3DAE0"/>
<path d="M44.7936 143.58C44.6907 144.101 45.0463 144.677 45.5047 144.731C45.9631 144.785 46.5386 144.43 46.593 143.972C46.6959 143.45 46.3545 142.986 45.8961 142.932C45.4235 142.766 44.9591 143.108 44.7936 143.58Z" fill="#D3DAE0"/>
<path d="M46.9462 143.644C46.7263 144.575 46.9223 145.228 47.506 145.379C47.9159 145.496 48.9215 144.973 48.9759 144.514C49.0929 144.104 48.4728 143.224 47.8891 143.073C47.3681 142.97 47.0006 143.186 46.9462 143.644Z" fill="#D3DAE0"/>
<path d="M49.4223 145.36C48.9438 145.59 48.7641 145.952 48.8208 146.396C48.8633 146.729 49.1137 146.923 49.35 147.006C49.4126 147.054 49.5378 147.151 49.6005 147.2C49.7741 147.234 49.8852 147.22 49.9963 147.206L50.0589 147.254L50.1073 147.192C50.3779 147.101 50.5233 146.913 50.6686 146.725C50.7655 146.6 50.7514 146.489 50.723 146.267C50.9109 146.412 51.0361 146.509 51.2098 146.543C51.9671 146.729 52.9585 146.094 53.2552 145.323C53.4408 144.566 53.0085 143.831 52.2512 143.645C51.2091 143.439 50.2378 143.789 50.0664 144.657C50.0321 144.831 50.0119 145.116 50.1029 145.386C49.9635 145.178 49.6787 145.158 49.4223 145.36Z" fill="#D3DAE0"/>
<path d="M29.0974 156.361C29.9233 156.199 30.7492 156.037 31.5751 155.875C31.4983 155.716 31.3589 155.508 31.06 155.377C31.5043 155.32 31.7749 155.229 32.0596 155.249C32.5807 155.352 32.8997 155.199 33.0652 154.726C33.2307 154.253 33.3962 153.781 32.9437 153.331C31.6974 151.966 31.1905 151.974 29.7348 152.95C29.7348 152.95 29.6863 153.012 29.5752 153.026C29.7832 152.887 29.977 152.637 30.0739 152.511C30.3162 152.198 30.2111 151.817 29.8011 151.7C29.377 151.472 28.9469 151.639 28.8299 152.049C28.7956 152.223 28.7896 152.619 28.9431 152.938C28.4847 152.883 28.1657 153.037 27.986 153.398C27.7721 153.934 28.1903 154.557 28.8708 154.584C29.4888 154.561 29.6565 154.991 29.9352 155.407C29.3941 155.589 29.166 156.013 29.0974 156.361Z" fill="#D3DAE0"/>
<path d="M81.53 122.756C81.4271 123.277 81.8311 123.79 82.2895 123.844C82.748 123.899 83.3092 123.432 83.3637 122.973C83.4181 122.515 83.0767 122.051 82.6667 121.934C82.1599 121.942 81.6329 122.235 81.53 122.756Z" fill="#D3DAE0"/>
<path d="M83.6688 122.708C83.4489 123.639 83.756 124.277 84.3396 124.429C84.7981 124.483 85.6925 123.974 85.7469 123.516C85.8014 123.057 85.1954 122.288 84.5491 122.088C84.0907 122.034 83.7232 122.25 83.6688 122.708Z" fill="#D3DAE0"/>
<path d="M86.2417 124.299C85.8742 124.516 85.6945 124.877 85.737 125.21C86.0277 124.835 86.3326 124.57 86.6233 124.194C86.4496 124.16 86.3386 124.174 86.2417 124.299Z" fill="#D3DAE0"/>
<path d="M90.6701 115.213C90.9973 115.567 91.4558 115.621 91.8091 115.294C92.0171 115.154 92.1967 114.793 92.1684 114.571C92.1602 114.064 91.7987 113.884 90.8818 113.775C90.6053 114.262 90.155 114.715 90.6701 115.213Z" fill="#D3DAE0"/>
<path d="M86.9341 123.534C86.9483 123.645 86.8998 123.708 86.914 123.819C87.2532 123.38 87.7034 122.928 88.0425 122.49C87.4387 122.623 86.9744 122.964 86.9341 123.534Z" fill="#D3DAE0"/>
<path d="M20.9061 154.527C20.1488 154.342 19.5107 154.649 19.422 155.281C19.3191 155.802 19.6262 156.44 20.0645 156.779C20.0444 157.064 20.0727 157.286 20.101 157.508C21.2743 157.415 22.496 157.259 23.7177 157.103C23.6268 156.833 23.5358 156.562 23.4591 156.403C23.4449 156.292 23.0975 156.223 22.9865 156.237C22.5907 156.231 22.2433 156.163 21.9929 155.969C22.0048 155.177 21.6634 154.713 20.9061 154.527Z" fill="#D3DAE0"/>
<path d="M5.88399 156.217C5.4114 156.051 4.8844 156.344 4.82998 156.802C4.80985 157.087 4.91494 157.469 5.1654 157.663C6.30437 157.743 7.44334 157.824 8.56815 157.793C8.33783 157.315 7.93383 156.802 7.52386 156.685C7.28757 156.602 6.90592 156.707 6.63534 156.798C6.49595 156.59 6.23134 156.285 5.88399 156.217Z" fill="#D3DAE0"/>
<path d="M22.9963 154.542C22.9278 154.89 23.4227 155.673 23.8327 155.79C24.18 155.859 24.7413 155.392 24.8583 154.982C25.0238 154.509 24.6683 153.934 24.1472 153.831C23.6888 153.777 23.1134 154.132 22.9963 154.542Z" fill="#D3DAE0"/>
<path d="M32.2903 155.728C32.8941 155.594 33.6089 155.447 34.2127 155.313C33.8997 155.071 33.5381 154.891 33.205 154.934C32.8718 154.976 32.5184 155.304 32.2903 155.728Z" fill="#D3DAE0"/>
<path d="M19.0388 157.587C18.9136 157.49 18.7884 157.393 18.6147 157.359C18.2673 157.29 17.9483 157.444 17.5808 157.66C18.0877 157.651 18.5946 157.643 19.0388 157.587Z" fill="#D3DAE0"/>
<path d="M11.9583 155.611C11.3888 155.571 10.9162 155.405 10.4719 155.462C9.91661 155.533 9.48054 156.096 9.5998 156.589C9.65645 157.033 9.82415 157.463 9.94341 157.956C11.4156 157.994 12.8251 157.984 14.2831 157.911C14.3316 157.848 14.3316 157.848 14.38 157.786C14.9331 156.812 14.834 156.035 14.0685 155.342C13.3656 154.698 12.7618 154.832 11.9583 155.611Z" fill="#D3DAE0"/>
<path d="M89.6441 96.0997C89.9914 96.1682 90.1084 95.7583 90.1427 95.5846L90.1286 95.4735C90.3224 95.2231 90.0436 94.8071 89.9184 94.7102C89.7932 94.6133 89.4316 94.4337 89.2378 94.6841C89.044 94.9346 89.1976 95.2536 89.2743 95.4132C89.337 95.4616 89.3369 95.4616 89.3996 95.51L89.3511 95.5727C89.1916 95.6494 89.2482 96.0937 89.6441 96.0997Z" fill="#D3DAE0"/>
<path d="M44.6499 124.749C44.3734 125.236 45.1672 126.151 45.5004 126.108C45.8336 126.066 46.1847 124.836 45.809 124.545C45.496 124.303 44.8922 124.436 44.6499 124.749Z" fill="#D3DAE0"/>
<path d="M52.8381 122.576C52.8038 122.75 52.7009 123.271 53.0624 123.45C53.424 123.63 53.749 123.081 53.7833 122.907C53.8175 122.733 53.8235 122.338 53.4762 122.269C53.1288 122.2 52.8724 122.402 52.8381 122.576Z" fill="#D3DAE0"/>
<path d="M50.1336 121.285C50.0732 122.139 51.2263 122.331 51.5312 122.066C51.8361 121.801 51.7086 120.802 51.2987 120.685C50.7009 120.422 50.2081 120.542 50.1336 121.285Z" fill="#D3DAE0"/>
<path d="M57.6116 121.065C57.8904 121.481 57.7652 121.384 57.5997 121.857C57.3858 122.392 57.4223 123.121 58.3391 123.23C59.3044 123.276 59.9201 122.351 60.0431 121.545C60.1662 120.739 59.0451 119.471 58.0455 119.599C57.268 119.698 57.2218 120.663 57.6116 121.065Z" fill="#D3DAE0"/>
<path d="M58.8594 128.637C59.5057 128.837 60.0811 128.482 60.2466 128.009C60.4322 127.252 59.9858 126.406 59.4647 126.303C58.77 126.166 57.9866 126.66 57.8353 127.244C57.6556 127.606 58.2132 128.438 58.8594 128.637Z" fill="#D3DAE0"/>
<path d="M44.0007 120.543C44.0835 120.307 43.9985 119.64 43.5401 119.586C43.0817 119.531 42.8677 120.067 42.896 120.289C42.8617 120.462 43.0779 120.83 43.2657 120.975C43.5646 121.106 43.9321 120.89 44.0007 120.543Z" fill="#D3DAE0"/>
<path d="M51.1469 129.677C51.0299 130.087 51.3086 130.503 51.7812 130.668C52.1912 130.785 52.6071 130.506 52.6131 130.111C52.5706 129.777 52.5281 129.444 52.3403 129.299C52.1524 129.154 51.2155 129.329 51.1469 129.677Z" fill="#D3DAE0"/>
<path d="M51.0742 128.219C51.4074 128.176 51.8375 128.009 52.0313 127.758C52.2251 127.508 51.807 126.884 51.4112 126.878C51.1264 126.858 50.87 127.06 50.7105 127.137C50.5107 127.783 50.741 128.261 51.0742 128.219Z" fill="#D3DAE0"/>
<path d="M54.65 116.871C54.6358 116.76 54.4823 116.441 54.3086 116.407C54.1349 116.372 53.8785 116.574 53.7816 116.7C53.7473 116.873 53.7413 117.269 54.1371 117.275C54.5471 117.392 54.6642 116.982 54.65 116.871Z" fill="#D3DAE0"/>
<path d="M95.7472 98.8203C95.4483 98.6891 95.1009 98.6205 94.8929 98.7599C94.685 98.8993 94.4994 99.6566 94.764 99.9615C95.0771 100.204 95.5839 100.196 95.8746 99.8199C96.228 99.4927 96.1713 99.0484 95.7472 98.8203Z" fill="#D3DAE0"/>
<path d="M95.8849 101.229C95.8789 101.625 95.9699 101.896 96.0325 101.944C96.4141 101.839 97.1714 102.025 97.3369 101.552C97.5024 101.079 96.8904 100.706 96.6743 100.338C96.5632 100.353 96.4522 100.367 96.3895 100.318C95.9252 100.66 95.8909 100.833 95.8849 101.229Z" fill="#D3DAE0"/>
<path d="M92.3527 99.1965C92.8051 99.6467 93.3746 99.687 93.4432 99.3396C93.5744 99.0407 93.6288 98.5823 93.4268 98.3259C93.2733 98.0069 92.5584 98.1544 92.3162 98.4675C92.2334 98.7038 92.2759 99.037 92.3527 99.1965Z" fill="#D3DAE0"/>
<path d="M83.124 107.371C83.2209 107.246 83.2895 106.899 83.1642 106.802C83.0875 106.642 82.7058 106.748 82.5463 106.824C82.4494 106.95 82.2698 107.311 82.4091 107.519C82.6596 107.713 83.0271 107.497 83.124 107.371Z" fill="#D3DAE0"/>
<path d="M85.0367 91.8335C85.279 91.5205 84.9659 91.2782 84.8407 91.1813C84.7154 91.0844 84.3338 91.1895 84.348 91.3006C84.2511 91.4258 84.2935 91.759 84.4188 91.8559C84.4814 91.9043 84.8429 92.084 85.0367 91.8335Z" fill="#D3DAE0"/>
<path d="M23.0157 151.154C22.4805 150.94 21.4749 151.463 21.261 151.998C21.1097 152.582 21.5763 153.143 22.5073 153.363C22.8062 153.494 23.2221 153.216 23.527 152.951C23.521 153.347 23.723 153.603 24.133 153.72C24.6056 153.886 25.1326 153.593 25.187 153.134C25.3041 152.724 24.997 152.086 24.587 151.969C24.2881 151.838 23.858 152.006 23.6642 152.256C23.6701 151.86 23.3146 151.285 23.0157 151.154Z" fill="#D3DAE0"/>
<path d="M76.1705 131.622C75.7061 131.963 75.5406 132.436 75.5145 133.117C75.5145 133.117 75.5145 133.117 75.4661 133.179C74.8198 132.979 73.891 133.662 73.6711 134.593C73.5198 135.177 73.7017 135.718 74.2369 135.932C75.8723 134.595 77.5077 133.257 79.0664 131.761C78.6139 131.31 77.9192 131.173 77.3013 131.196C76.857 131.252 76.4269 131.42 76.1705 131.622Z" fill="#D3DAE0"/>
<path d="M14.7436 130.538C14.0772 130.623 13.3564 131.166 13.205 131.75C13.1305 132.493 13.375 133.083 13.89 133.581C14.0779 133.727 14.3768 133.858 14.6474 133.767C15.5359 133.654 16.1315 133.013 16.1151 132C16.1494 131.826 16.121 131.604 16.0927 131.382C16.4885 131.388 16.7733 131.408 17.1691 131.414C17.8355 131.329 18.0293 131.078 18.118 130.446C18.1582 129.877 17.8653 129.35 17.3301 129.136C16.8434 128.859 16.3648 129.09 15.963 129.479C15.6582 129.744 15.4785 130.106 15.2989 130.467C15.0768 130.495 14.9031 130.461 14.7436 130.538Z" fill="#D3DAE0"/>
<path d="M100.586 101.364C100.211 101.073 99.399 101.346 99.0598 101.784C98.5753 102.41 98.7087 103.014 99.3348 103.498C99.8357 103.886 100.294 103.94 100.71 103.662C100.841 103.363 101.035 103.112 101.166 102.813C101.095 102.258 100.962 101.654 100.586 101.364Z" fill="#D3DAE0"/>
<path d="M47.2335 127.75C47.1567 127.59 46.7751 127.695 46.6156 127.772C46.456 127.849 46.339 128.259 46.4784 128.467C46.6178 128.675 47.0479 128.507 47.1448 128.382C47.2901 128.194 47.3103 127.909 47.2335 127.75Z" fill="#D3DAE0"/>
<path d="M13.8745 127.262C13.6583 126.894 12.901 126.709 12.5902 127.369C12.453 128.064 13.2386 128.472 13.6061 128.256C13.8141 128.116 14.028 127.581 13.8745 127.262Z" fill="#D3DAE0"/>
<path d="M34.4372 122.552C34.3604 122.393 33.9989 122.213 33.8394 122.29C33.7283 122.304 33.3266 122.694 33.4175 122.965C33.4458 123.187 34.0779 123.275 34.2374 123.199C34.3344 123.073 34.514 122.712 34.4372 122.552Z" fill="#D3DAE0"/>
<path d="M57.9993 137.382C58.5204 137.485 59.1786 136.893 59.2673 136.261C59.3217 135.802 59.154 135.372 58.8409 135.13C59.0004 135.053 59.0974 134.928 59.1943 134.803C59.5536 134.08 59.1354 133.456 59.2323 133.331C59.3292 133.205 60.1752 132.759 59.8197 132.183C59.0944 130.921 58.1455 131.889 57.8809 131.584C57.6163 131.279 57.3919 130.405 56.9395 129.955C56.3476 129.296 55.354 129.028 54.7726 129.779C54.1286 130.482 54.1651 131.211 54.5833 131.835C54.2501 131.878 53.4868 132.088 53.404 132.324C53.3354 132.672 54.1211 133.079 54.2806 133.003C54.6623 132.897 55.155 132.778 55.272 132.368C56.0435 132.665 56.5764 131.976 56.8835 132.614C57.2674 133.412 56.4132 133.351 56.9991 134.405C57.1384 134.613 57.2778 134.821 57.4031 134.918C57.0214 135.023 56.7792 135.336 56.7106 135.684C56.6845 136.364 57.3046 137.245 57.9993 137.382Z" fill="#D3DAE0"/>
<path d="M36.0718 126.52C35.8862 127.278 36.4296 127.998 37.1384 128.247C38.0694 128.467 38.9639 127.957 39.1838 127.026C39.3694 126.269 38.9997 125.583 38.3535 125.383C37.4225 125.163 36.2574 125.763 36.0718 126.52Z" fill="#D3DAE0"/>
<path d="M33.1691 140.491C33.2235 140.033 32.9872 139.95 32.6398 139.881C32.2299 139.764 31.8139 140.043 31.808 140.439C31.7878 140.724 31.9898 140.98 32.0808 141.251C32.2545 141.285 32.3655 141.271 32.4766 141.257C32.4907 141.368 32.4423 141.43 32.408 141.604C32.9231 142.103 33.3673 142.046 33.866 141.531C35.2293 142.486 36.0612 141.928 36.182 140.22C36.2931 140.206 36.39 140.08 36.501 140.066C36.9937 139.947 37.0623 139.6 37.0683 139.204C37.0743 138.808 36.8723 138.552 36.5107 138.372C35.6625 137.916 35.2808 138.021 34.8872 138.918C34.5764 139.578 34.2656 140.238 33.9406 140.788C33.579 140.608 33.3428 140.525 33.1691 140.491Z" fill="#D3DAE0"/>
<path d="M26.4941 128.418C25.9589 128.204 25.0846 128.429 24.8706 128.964C24.6567 129.499 25.0748 130.123 25.8463 130.42C26.2078 130.599 26.8459 130.292 27.0256 129.931C27.1568 129.632 27.1001 129.188 27.0092 128.917C27.288 129.333 27.6152 129.686 27.9625 129.755C28.7199 129.941 29.7113 129.306 29.8827 128.438C30.0683 127.68 29.4198 126.578 28.7251 126.441C27.7941 126.221 26.7886 126.744 26.714 127.487C26.6454 127.835 26.8132 128.265 26.9809 128.695C26.7304 128.501 26.6052 128.404 26.4941 128.418Z" fill="#D3DAE0"/>
<path d="M29.2541 135.46C29.2884 135.286 29.2317 134.842 29.0581 134.807C28.8844 134.773 28.5311 135.1 28.4968 135.274C28.4625 135.448 28.5534 135.718 28.7897 135.801C29.026 135.884 29.2198 135.633 29.2541 135.46Z" fill="#D3DAE0"/>
<path d="M85.3644 112.108C85.9905 112.593 86.879 112.48 87.3636 111.853C88.0076 111.151 87.9286 110.088 87.1772 109.507C86.5511 109.022 85.7595 109.01 85.3234 109.574C84.6794 110.277 84.7383 111.624 85.3644 112.108Z" fill="#D3DAE0"/>
<path d="M16.4078 149.344C17.2054 148.96 17.5162 148.299 17.4312 147.633C17.3463 146.967 16.4011 146.636 15.5126 146.749C14.8462 146.834 14.182 147.822 14.3155 148.425C14.5599 149.015 15.6102 149.728 16.4078 149.344Z" fill="#D3DAE0"/>
<path d="M-2.21215 144.946C-2.38361 145.814 -2.23603 146.529 -1.71499 146.632C-1.19396 146.735 -0.299472 146.226 -0.21076 145.593C-0.162308 145.531 -0.17647 145.42 -0.253244 145.26C0.00317674 145.058 -0.0191729 144.44 -0.332238 144.198C-0.520077 144.053 -0.853271 144.095 -0.964336 144.109C-1.01279 144.172 -1.06124 144.235 -1.10969 144.297L-1.17231 144.249C-1.51967 144.18 -2.09512 144.536 -2.21215 144.946Z" fill="#D3DAE0"/>
<path d="M5.28721 142.24C5.05092 142.157 4.93986 142.171 4.74605 142.422C4.66331 142.658 4.67747 142.769 4.86531 142.915C5.1016 142.997 5.27528 143.032 5.35802 142.795C5.60028 142.482 5.5235 142.323 5.28721 142.24Z" fill="#D3DAE0"/>
<path d="M10.2615 143.186C10.4412 142.825 10.2876 142.506 9.87765 142.389C9.57875 142.257 9.18293 142.251 9.00328 142.613C8.82364 142.974 9.06812 143.564 9.60332 143.778C9.74867 143.59 10.0677 143.437 10.2615 143.186Z" fill="#D3DAE0"/>
<path d="M8.92785 148.661C8.81679 148.675 8.63714 149.037 8.77653 149.245C8.91592 149.453 9.2834 149.237 9.44291 149.16C9.49137 149.097 9.62257 148.798 9.49734 148.701C10.0952 148.964 10.9978 148.961 11.3914 148.065C11.9304 146.98 11.6434 146.057 10.983 145.747C10.371 145.373 8.95547 145.779 8.59618 146.502C8.15414 147.462 8.63492 148.134 9.13583 148.522C9.19844 148.57 9.26104 148.619 9.32366 148.667C9.19843 148.57 8.9763 148.598 8.92785 148.661Z" fill="#D3DAE0"/>
<path d="M11.253 154.065C11.663 154.182 12.19 153.889 12.2586 153.541C12.3271 153.194 12.222 152.812 11.9574 152.508C12.1997 152.194 12.1572 151.861 12.1915 151.688C12.0722 151.195 11.7107 151.015 11.3492 150.836C10.9877 150.656 10.6746 150.414 10.1961 150.644C9.66906 150.937 9.54606 151.743 9.95006 152.256C10.0895 152.464 10.4025 152.706 10.6388 152.789C10.439 153.435 10.732 153.962 11.253 154.065Z" fill="#D3DAE0"/>
<path d="M97.5497 94.8094C96.6753 95.0338 96.0939 95.7852 96.4293 96.6454C96.8415 97.6651 97.7241 97.9476 98.5217 97.5637C99.7009 97.0748 99.0524 95.9723 99.844 95.9842C100.573 95.9477 100.422 96.5314 101.116 96.6685L101.068 96.7311C100.965 97.2522 101.286 98.0013 101.696 98.1183C102.044 98.1869 102.591 97.6092 102.708 97.1993C102.776 96.8519 102.685 96.5813 102.435 96.3875C102.948 95.9835 103.21 95.3857 102.869 94.9213C102.388 94.249 101.673 94.3965 101.596 94.237C101.52 94.0775 101.455 93.1264 100.788 93.2113C99.3931 93.3328 99.8336 94.5747 99.4035 94.7424C99.0219 94.8475 98.2019 94.6134 97.5497 94.8094Z" fill="#D3DAE0"/>
<path d="M68.7922 135.723C68.5902 135.467 68.2287 135.287 68.0066 135.315C67.5139 135.435 67.5221 135.941 67.5161 136.337C67.9059 136.739 68.3159 136.856 68.7177 136.466C68.8004 136.23 68.8548 135.772 68.7922 135.723Z" fill="#D3DAE0"/>
<path d="M17.2047 137.447C17.8026 137.71 18.8364 137.409 19.0645 136.984C19.3754 136.324 18.9773 135.415 18.3169 135.105C17.7191 134.842 16.762 135.303 16.4653 136.074C16.2514 136.609 16.6069 137.185 17.2047 137.447Z" fill="#D3DAE0"/>
<path d="M7.62725 130.937C7.59295 131.111 7.47592 131.521 7.71221 131.603C7.9485 131.686 8.19076 131.373 8.23921 131.31C8.2735 131.137 8.35625 130.9 8.05735 130.769C7.75844 130.638 7.61308 130.826 7.62725 130.937Z" fill="#D3DAE0"/>
<path d="M32.2949 132.307C32.0102 132.286 31.6285 132.391 31.4832 132.579C31.0471 133.143 31.3885 133.607 31.952 134.043C32.4932 133.861 33.0485 133.791 33.012 133.062C32.9695 132.728 32.7533 132.361 32.2949 132.307Z" fill="#D3DAE0"/>
<path d="M19.6146 140.413C19.344 140.504 19.1018 140.817 19.0817 141.102C18.9929 141.734 19.5281 141.948 20.0633 142.162C20.5277 141.821 21.0547 141.528 20.7476 140.89C20.685 140.841 20.7335 140.779 20.6709 140.73C20.7819 140.716 20.8788 140.591 20.9899 140.577C20.9899 140.577 21.0525 140.625 21.004 140.688C21.2828 141.104 21.1576 141.007 20.9437 141.542C20.7297 142.077 20.7178 142.869 21.6831 142.915C22.5999 143.024 23.2782 142.147 23.4639 141.39C23.601 140.695 22.7163 139.51 21.7994 139.401C21.7569 139.068 21.4923 138.763 21.145 138.694C20.3876 138.509 19.6869 138.768 19.5356 139.351C19.2934 139.664 19.4126 140.157 19.6146 140.413Z" fill="#D3DAE0"/>
<path d="M22.1679 133.88C21.954 134.415 22.2268 135.227 22.5883 135.407C23.1861 135.669 24.1432 135.209 24.3572 134.673C24.5711 134.138 24.1246 133.292 23.5268 133.03C22.8805 132.83 22.4646 133.109 22.1679 133.88Z" fill="#D3DAE0"/>
<path d="M39.0643 134.942C38.9472 135.352 39.2402 135.879 39.7612 135.982C40.2822 136.085 40.7608 135.855 40.8778 135.445C41.0433 134.972 40.7504 134.445 40.3404 134.328C39.8678 134.163 39.2298 134.47 39.0643 134.942Z" fill="#D3DAE0"/>
<path d="M34.9535 137.667C35.4745 137.77 36.4942 137.358 36.6113 136.948C36.8111 136.302 36.4555 135.726 35.684 135.43C35.1488 135.216 34.5875 135.682 34.4019 136.44C34.2506 137.023 34.4809 137.502 34.9535 137.667Z" fill="#D3DAE0"/>
<path d="M35.615 132.673C35.4495 133.146 35.5546 133.528 35.9788 133.756C36.2151 133.838 36.6109 133.844 36.7704 133.768C37.2489 133.537 37.2549 133.142 36.8569 132.233C36.4611 132.227 35.8632 131.965 35.615 132.673Z" fill="#D3DAE0"/>
<path d="M26.7045 137.591C26.5047 138.237 26.8603 138.812 27.6318 139.109C27.868 139.192 28.0902 139.163 28.3123 139.135C28.3891 139.295 28.4032 139.406 28.4659 139.454C28.9869 139.557 29.4513 139.216 29.5057 138.757C29.54 138.583 29.4632 138.424 29.4006 138.376C29.4975 138.25 29.5318 138.077 29.5661 137.903C29.7033 137.208 29.2568 136.362 28.4994 136.177C27.8673 136.088 27.0355 136.645 26.7045 137.591Z" fill="#D3DAE0"/>
<path d="M3.03083 139.593C3.23283 139.849 4.07289 139.799 4.44038 139.583C4.85632 139.304 4.84813 138.797 4.50674 138.333C4.17952 137.979 3.76954 137.862 3.41622 138.189C3.00028 138.468 2.76622 139.288 3.03083 139.593Z" fill="#D3DAE0"/>
<path d="M10.8993 134.47C11.2183 134.317 11.3697 133.733 11.1677 133.477C10.9515 133.109 10.6668 133.089 9.88333 133.584C9.74617 134.279 10.5318 134.686 10.8993 134.47Z" fill="#D3DAE0"/>
<path d="M7.00247 136.66C7.08522 136.424 6.99428 136.154 6.50754 135.877C6.02079 135.6 5.51392 135.609 5.1263 136.11C4.69024 136.673 4.91459 137.547 5.47811 137.983C6.04163 138.42 6.45756 138.141 6.78479 138.494C7.16047 138.785 7.43105 138.694 7.84699 138.415C8.26293 138.136 8.87268 137.607 8.46868 137.094C8.00206 136.533 7.63457 136.749 7.4266 136.888C7.31553 136.903 6.85712 136.848 7.00247 136.66Z" fill="#D3DAE0"/>
<path d="M13.0536 140.742C11.22 140.524 10.8346 141.928 10.9277 143.101C10.9844 143.545 11.1379 143.864 11.4025 144.169C11.7924 144.571 12.2649 144.736 12.8829 144.714C13.5008 144.692 14.0159 145.19 14.5429 144.897C15.3405 144.514 16.352 143.594 16.1679 142.151C16.0546 141.262 15.6506 140.749 15.1013 140.424C14.5035 140.162 13.7968 140.816 13.0536 140.742Z" fill="#D3DAE0"/>
<path d="M14.2991 139.003C14.6263 139.357 15.0646 139.696 15.5916 139.403C15.9591 139.187 16.1246 138.714 15.9084 138.347C15.769 138.139 15.3934 137.848 15.1086 137.828C14.5533 137.899 14.3393 138.434 14.2991 139.003Z" fill="#D3DAE0"/>
<path d="M19.4804 145.115C19.1979 145.997 19.596 146.906 20.3048 147.154C21.0137 147.402 22.4494 146.711 22.6976 146.003C22.9458 145.294 22.3741 144.351 21.6026 144.054C20.8453 143.868 19.7287 144.406 19.4804 145.115Z" fill="#D3DAE0"/>
<path d="M-0.590212 129.784C-0.963667 130.396 -0.858564 130.777 -0.218273 131.373C-0.19592 131.991 -0.236186 132.56 -0.116929 133.053C-0.0461232 133.608 0.648596 133.746 0.876695 133.321C1.2017 132.772 1.71454 132.368 1.61541 131.591C1.42757 131.445 1.22557 131.189 0.975113 130.995C1.0355 130.141 0.776861 129.44 0.31844 129.386C-0.0289158 129.317 -0.410566 129.422 -0.590212 129.784Z" fill="#D3DAE0"/>
<path d="M61.6168 123.263C61.7823 122.791 61.1703 122.417 61.0026 121.987C60.8915 122.001 60.7805 122.015 60.7178 121.967C60.2393 122.197 60.205 122.371 60.199 122.767C60.1931 123.163 60.284 123.433 60.2981 123.544C60.7424 123.488 61.4997 123.673 61.6168 123.263Z" fill="#D3DAE0"/>
<path d="M62.7357 123.628C62.2005 123.414 61.7704 123.582 61.6049 124.055C61.4394 124.527 61.6697 125.006 62.2049 125.22C62.5038 125.351 62.8027 125.482 63.0047 125.738C63.3461 126.203 63.8329 126.479 64.374 126.297C64.8041 126.13 65.2946 125.108 65.1128 124.567C64.9935 124.074 64.8742 123.581 64.1452 123.618C63.7636 123.723 63.1941 123.683 62.7357 123.628Z" fill="#D3DAE0"/>
<path d="M65.5211 135.294C65.404 135.704 65.6828 136.12 66.1554 136.285C66.628 136.451 66.9954 136.234 67.1609 135.762C67.3264 135.289 67.0335 134.762 66.575 134.708C66.1025 134.542 65.5755 134.835 65.5211 135.294Z" fill="#D3DAE0"/>
<path d="M62.2113 127.928C62.2255 128.039 62.1912 128.212 62.2195 128.435C62.1427 128.275 62.0175 128.178 61.8438 128.144C61.3854 128.089 61.1715 128.625 61.0403 128.924C60.9091 129.222 60.9031 129.618 61.3757 129.784C61.7856 129.901 62.3753 129.656 62.3328 129.323C62.3186 129.212 62.3529 129.038 62.2761 128.879C62.2903 128.99 62.4155 129.087 62.5266 129.073C62.9224 129.079 63.3585 128.515 63.4412 128.279C63.5583 127.869 63.2936 127.564 62.7726 127.461C62.4111 127.281 62.1688 127.595 62.2113 127.928Z" fill="#D3DAE0"/>
<path d="M64.7041 130.658C64.7041 130.658 64.6557 130.72 64.7183 130.769C64.3366 130.874 64.0317 131.138 63.9773 131.597C63.9229 132.055 64.2017 132.471 64.7227 132.574C65.1811 132.628 65.5002 132.475 65.6798 132.113C66.0898 132.23 66.6652 131.875 66.7823 131.465C67.0163 130.645 66.7435 129.833 66.1599 129.682C65.6873 129.516 64.8554 130.074 64.7041 130.658Z" fill="#D3DAE0"/>
<path d="M66.4556 125.806C66.2335 125.835 65.9771 126.037 65.8175 126.114C65.7288 126.746 66.0076 127.162 66.3408 127.119C66.5629 127.091 66.9304 126.875 67.0758 126.687C67.2554 126.325 66.7888 125.764 66.4556 125.806Z" fill="#D3DAE0"/>
<path d="M57.9622 116.731C57.9137 116.793 57.9704 117.238 58.2067 117.32C58.4429 117.403 58.671 116.979 58.7053 116.805C58.7538 116.743 58.6002 116.424 58.4266 116.389C58.2529 116.355 57.9965 116.557 57.9622 116.731Z" fill="#D3DAE0"/>
<path d="M68.4005 126.01C68.0815 126.163 67.8534 126.587 67.7848 126.935C67.6253 127.011 67.6394 127.122 67.6051 127.296C67.5992 127.692 67.8496 127.886 68.1485 128.017C68.4616 128.259 68.7463 128.279 68.92 128.314C68.8455 129.057 69.403 129.889 70.0977 130.026C70.6188 130.129 71.063 130.072 71.4163 129.745C71.5699 130.064 71.7577 130.209 71.994 130.292C72.1677 130.326 72.2788 130.312 72.4383 130.235C73.4118 130.788 74.3487 130.613 74.7222 130.001C75.0129 129.625 74.9622 128.785 74.6693 128.258C75.0651 128.264 75.4326 128.048 75.5496 127.638C75.6666 127.228 75.3253 126.763 74.8042 126.66C74.2832 126.558 73.8673 126.836 73.7018 127.309C73.6533 127.372 73.7159 127.42 73.6675 127.483C73.0838 127.331 72.6053 127.562 72.3004 127.826C72.1893 127.84 72.0298 127.917 71.9188 127.931C71.751 127.501 71.3754 127.211 70.6807 127.073C70.3959 127.053 70.1596 126.97 69.8891 127.061C69.9233 126.888 70.0061 126.651 69.8667 126.443C69.7959 125.888 68.9275 125.717 68.4005 126.01Z" fill="#D3DAE0"/>
<path d="M49.9099 140.332C49.7243 141.089 50.3869 142.302 51.1927 142.425C51.3038 142.411 51.4774 142.446 51.5885 142.431C51.6168 142.654 51.6936 142.813 51.8188 142.91C52.0693 143.104 52.7841 142.956 52.9355 142.373C52.9697 142.199 52.893 142.039 52.7536 141.831C52.9474 141.581 53.0927 141.393 53.1755 141.157C53.3611 140.399 52.9146 139.553 52.2199 139.416C51.1637 139.099 50.0471 139.637 49.9099 140.332Z" fill="#D3DAE0"/>
<path d="M41.8388 133.686C41.6308 133.826 41.528 134.347 41.5563 134.569C41.7523 135.221 42.6691 135.33 43.0851 135.051C43.501 134.772 43.5614 133.918 42.8384 133.559C42.6021 133.476 42.1578 133.533 41.8388 133.686Z" fill="#D3DAE0"/>
<path d="M37.7462 138.327C38.3924 138.527 38.5862 138.277 38.7174 137.978C38.8486 137.679 38.792 137.235 38.382 137.118C38.0973 137.098 37.6046 137.217 37.5218 137.453C37.5017 137.738 37.7178 138.105 37.7462 138.327Z" fill="#D3DAE0"/>
<path d="M55.523 127.257C55.4403 127.493 55.8644 127.721 56.0381 127.756C56.1007 127.804 56.3713 127.713 56.4056 127.539C56.4399 127.366 56.2863 127.047 56.1753 127.061C56.0501 126.964 55.5573 127.083 55.523 127.257Z" fill="#D3DAE0"/>
<path d="M44.6833 138.289C44.6348 138.352 44.649 138.463 44.6632 138.574C44.5238 138.366 44.3359 138.221 44.0996 138.138C43.4392 137.827 42.8354 137.96 42.1691 138.045C41.9469 138.074 41.6622 138.054 41.4885 138.019C40.6544 137.674 40.0163 137.981 39.7823 138.801C39.6571 138.704 39.5944 138.656 39.4834 138.67C39.136 138.601 38.6232 139.005 38.5203 139.526C38.369 140.11 38.6761 140.748 39.1971 140.851C39.6555 140.906 40.0715 140.627 40.1743 140.106C40.3622 140.251 40.5358 140.285 40.8206 140.305C40.9458 140.402 41.0084 140.451 41.071 140.499C41.2447 140.534 41.5921 140.602 41.6748 140.366C41.8485 140.4 41.9737 140.497 42.1616 140.642C42.6766 141.141 43.3289 140.945 43.9326 140.812C44.0437 140.797 44.0922 140.735 44.2517 140.658C44.3143 140.707 44.4395 140.803 44.6132 140.838C44.8979 140.858 45.0917 140.607 45.126 140.434C45.1603 140.26 45.1804 139.975 44.8815 139.844C44.9158 139.67 44.9501 139.497 44.9844 139.323C45.0329 139.26 44.9703 139.212 45.0187 139.149C45.2349 139.517 45.5479 139.759 45.8953 139.828C46.4163 139.931 46.9292 139.527 47.1148 138.769C47.1774 138.818 47.1774 138.818 47.24 138.866C47.5389 138.997 47.7185 138.636 47.8013 138.4C47.8497 138.337 47.6962 138.018 47.6336 137.969C47.4599 137.935 47.3004 138.012 47.1409 138.089C47.0358 137.707 46.8196 137.34 46.5207 137.208C45.7433 137.308 44.7862 137.768 44.6833 138.289Z" fill="#D3DAE0"/>
<path d="M60.8071 132.847C60.7042 133.368 60.9345 133.847 61.3929 133.901C61.6292 133.984 61.8998 133.893 62.1078 133.754L62.0593 133.816C61.908 134.4 62.0698 135.226 62.5423 135.391C63.3764 135.737 64.0063 134.923 64.297 134.547C64.5877 134.171 63.7939 133.257 63.0507 133.182C62.766 133.162 62.6065 133.239 62.447 133.316L62.4954 133.253C62.6124 132.843 62.2569 132.268 61.8469 132.15C61.3259 132.048 60.8615 132.389 60.8071 132.847Z" fill="#D3DAE0"/>
<path d="M42.4088 128.421C42.0898 128.575 42.6697 130.024 42.9686 130.156C43.3786 130.273 43.8005 129.598 43.7155 128.932C43.6306 128.265 42.7279 128.267 42.4088 128.421Z" fill="#D3DAE0"/>
<path d="M46.0872 130.266C45.9359 130.85 45.7846 131.433 45.7585 132.114C45.7324 132.794 46.4979 133.487 47.13 133.576C47.4773 133.644 47.859 133.539 48.0386 133.178C48.3696 132.232 48.5895 131.301 48.2884 130.268C48.2116 130.108 48.1348 129.949 48.0722 129.9C47.4036 129.082 46.4182 129.321 46.0872 130.266Z" fill="#D3DAE0"/>
<path d="M1.13012 137.522C0.651569 137.752 0.0962413 137.823 -0.0207924 138.233C-0.137826 138.643 -0.0610467 138.802 0.0157274 138.962C0.0925014 139.121 0.134984 139.455 0.448049 139.697C0.761114 139.939 1.46998 140.187 2.0596 139.943C2.64921 139.698 2.87731 139.274 2.93173 138.816C2.98615 138.357 2.70738 137.942 2.45693 137.748C2.09542 137.568 1.56022 137.354 1.13012 137.522Z" fill="#D3DAE0"/>
<path d="M70.0197 123.659C69.6098 123.542 69.0485 124.009 68.8144 124.828C68.8912 124.988 69.0447 125.307 69.281 125.39C69.5799 125.521 70.0242 125.464 70.2806 125.262C70.3432 125.311 70.3432 125.311 70.4058 125.359C70.9268 125.462 71.4538 125.169 71.5567 124.648C71.6111 124.19 71.3324 123.774 70.8113 123.671C70.6377 123.637 70.4155 123.665 70.256 123.742C70.256 123.742 70.145 123.756 70.0197 123.659Z" fill="#D3DAE0"/>
<path d="M69.9198 102.96C70.0793 102.883 70.1964 102.473 70.1196 102.314C70.0428 102.154 69.6813 101.975 69.5218 102.051C69.4107 102.065 69.0089 102.455 69.0999 102.726C69.1282 102.948 69.7603 103.037 69.9198 102.96Z" fill="#D3DAE0"/>
<path d="M1.20821 143.889C1.23653 144.111 1.42437 144.256 1.6465 144.228C1.86863 144.2 2.11088 143.887 2.14517 143.713C2.11685 143.491 1.81795 143.36 1.59582 143.388C1.43631 143.465 1.17989 143.667 1.20821 143.889Z" fill="#D3DAE0"/>
<path d="M2.19015 144.949C2.15586 145.123 2.08728 145.47 2.22667 145.678C2.28928 145.726 2.30344 145.837 2.36606 145.886C2.04702 146.039 1.7906 146.241 1.62511 146.714C1.37688 147.423 1.59304 147.79 2.36453 148.087C3.0734 148.335 3.61457 148.153 3.82851 147.618C3.89709 147.271 3.70106 146.619 3.42229 146.203C3.53335 146.189 3.5818 146.126 3.63025 146.063C4.04619 145.785 4.12073 145.041 3.85612 144.736C3.65412 144.48 2.8625 144.468 2.19015 144.949Z" fill="#D3DAE0"/>
<path d="M6.89548 146.888C7.16606 146.797 7.53354 146.581 7.61628 146.345C8.02402 145.559 7.9249 144.782 6.9857 144.055C6.66667 144.208 6.27086 144.203 5.90338 144.419C5.37637 144.712 5.12814 145.42 5.2474 145.913C5.66556 146.537 6.22909 146.973 6.89548 146.888Z" fill="#D3DAE0"/>
<path d="M65.0347 138.121C65.1539 138.614 66.2444 138.757 66.3756 138.458C66.5553 138.096 66.0462 137.202 65.6019 137.258C65.3313 137.349 64.9922 137.788 65.0347 138.121Z" fill="#D3DAE0"/>
<path d="M67.1175 140.734C66.9781 140.526 66.6792 140.395 66.2692 140.278C65.5745 140.141 64.8254 140.462 64.7225 140.983C64.6054 141.393 64.8984 141.92 65.1772 142.336C66.009 141.778 66.952 141.207 67.7839 140.649C67.6102 140.615 67.3396 140.706 67.1175 140.734Z" fill="#D3DAE0"/>
<path d="M54.5977 143.459C54.4263 144.327 54.9495 145.333 55.7553 145.456C56.6863 145.676 57.6293 145.104 57.8633 144.284C58.0832 143.353 57.6025 142.681 56.6088 142.412C55.5668 142.207 54.7692 142.591 54.5977 143.459Z" fill="#D3DAE0"/>
<path d="M49.9394 135.249C49.8022 135.944 50.0467 136.533 50.5677 136.636C51.2624 136.773 52.2538 136.139 52.3426 135.507C52.397 135.048 51.8678 134.439 51.2841 134.287C50.5894 134.15 50.125 134.492 49.9394 135.249Z" fill="#D3DAE0"/>
<path d="M42.6691 152.147C42.6064 152.099 42.558 152.161 42.6691 152.147C42.7034 151.973 42.7376 151.8 42.6609 151.64C42.6042 151.196 42.2286 150.905 41.7701 150.851C41.2633 150.859 40.8958 151.075 40.7787 151.485C40.7444 151.659 40.7586 151.77 40.7728 151.881C40.5365 151.798 40.3144 151.826 40.1407 151.792C39.6823 151.738 39.3148 151.954 38.9957 152.107C38.5313 152.449 38.3659 152.921 38.2771 153.554C38.257 153.838 38.1117 154.026 38.0289 154.262C39.8261 153.751 41.6233 153.24 43.4689 152.666C43.2184 152.472 42.8912 152.119 42.6691 152.147Z" fill="#D3DAE0"/>
<path d="M58.093 141.659C58.3778 141.679 58.8846 141.671 59.0158 141.372C59.147 141.073 58.8056 140.609 58.5552 140.415C58.2421 140.173 57.8262 140.451 57.7091 140.861C57.5437 141.334 57.7457 141.59 58.093 141.659Z" fill="#D3DAE0"/>
<path d="M57.5615 140.147C57.5473 140.036 57.519 139.813 57.4079 139.828C57.2343 139.793 57.2 139.967 57.1515 140.03C57.1031 140.092 57.2909 140.238 57.3535 140.286C57.4161 140.334 57.5756 140.258 57.5615 140.147Z" fill="#D3DAE0"/>
<path d="M65.8402 118.323C65.7776 118.275 65.604 118.24 65.4787 118.144C65.0688 118.026 64.6528 118.305 64.7095 118.75C64.752 119.083 64.954 119.339 65.0307 119.499C65.3155 119.519 65.5376 119.49 65.7456 119.351C65.8507 119.733 66.0527 119.989 66.289 120.072C66.6363 120.14 67.2461 119.611 67.3631 119.201C67.5286 118.729 67.1872 118.264 66.6662 118.161C66.2562 118.044 65.9856 118.135 65.8402 118.323Z" fill="#D3DAE0"/>
<path d="M1.41422 151.256C1.94345 151.865 3.0198 151.897 3.64371 151.479C3.99703 151.152 4.00897 150.36 3.66759 149.896C3.07575 149.238 2.33259 149.163 1.72284 149.692C1.21 150.096 1.02438 150.854 1.41422 151.256Z" fill="#D3DAE0"/>
<path d="M0.790822 146.369C0.54037 146.175 0.0394596 145.787 -0.299704 146.226C-0.590416 146.601 -0.345932 147.191 -0.206544 147.399C0.00961679 147.766 0.43972 147.599 0.696141 147.397C1.04947 147.069 1.15234 146.548 0.790822 146.369Z" fill="#D3DAE0"/>
<path d="M27.5254 152.441C28.0464 152.544 28.5734 152.251 28.6763 151.73C28.7307 151.272 28.2641 150.71 27.8057 150.656C27.3473 150.602 26.8829 150.943 26.8284 151.401C26.7256 151.922 27.0044 152.338 27.5254 152.441Z" fill="#D3DAE0"/>
<path d="M5.01891 151.643C4.70807 152.303 5.27978 153.246 6.03711 153.432C6.74598 153.68 7.72321 152.935 7.94312 152.004C8.1429 151.357 7.71057 150.622 6.95324 150.437C5.7375 150.197 5.49524 150.51 5.01891 151.643Z" fill="#D3DAE0"/>
<path d="M24.2487 147.103C24.1175 147.402 24.2853 147.832 24.5499 148.137C24.3419 148.276 24.1623 148.638 24.0653 148.763C23.9342 149.062 23.9282 149.457 24.3382 149.574C24.6997 149.754 25.3519 149.558 25.3579 149.162C25.3921 148.989 25.3497 148.655 25.2587 148.385C25.5919 148.342 25.9594 148.126 26.0764 147.716C26.2419 147.244 25.9975 146.654 25.5875 146.537C25.1775 146.42 24.3173 146.755 24.2487 147.103Z" fill="#D3DAE0"/>
<path d="M38.1918 152.887C38.3573 152.415 38.0644 151.888 37.606 151.833C37.0849 151.73 36.5579 152.023 36.4551 152.544C36.338 152.954 36.6936 153.53 37.1035 153.647C37.562 153.701 38.089 153.408 38.1918 152.887Z" fill="#D3DAE0"/>
<path d="M55.6124 138.138C55.4954 138.547 56.0246 139.157 56.6709 139.357C57.3171 139.557 57.9552 139.25 58.1207 138.777C58.272 138.193 57.8881 137.396 57.4156 137.23C56.7067 136.982 55.7011 137.505 55.6124 138.138Z" fill="#D3DAE0"/>
<path d="M82.1916 109.353C82.0403 109.936 81.9516 110.569 81.974 111.186C81.9479 111.867 82.7618 112.497 83.4565 112.634C83.8523 112.64 84.1855 112.598 84.3026 112.188C84.5709 111.194 84.7908 110.263 84.4413 109.292C84.3645 109.132 84.2251 108.924 84.1625 108.876C83.397 108.183 82.4115 108.422 82.1916 109.353Z" fill="#D3DAE0"/>
<path d="M75.385 114.397C75.268 114.807 75.6094 115.271 76.082 115.437C76.603 115.54 77.0816 115.309 77.136 114.851C77.2388 114.33 76.9601 113.914 76.4875 113.748C76.126 113.569 75.5021 113.987 75.385 114.397Z" fill="#D3DAE0"/>
<path d="M71.7902 112.316C71.6247 112.788 71.7924 113.218 72.265 113.384C72.5013 113.467 72.8971 113.473 73.1051 113.333C73.5836 113.103 73.527 112.659 73.1916 111.798C72.6221 111.758 72.0384 111.607 71.7902 112.316Z" fill="#D3DAE0"/>
<path d="M78.0969 113.091C77.8889 113.231 77.7861 113.752 77.877 114.022C78.073 114.675 79.0383 114.721 79.3916 114.394C79.745 114.066 79.7569 113.275 79.0965 112.964C78.846 112.77 78.3533 112.889 78.0969 113.091Z" fill="#D3DAE0"/>
<path d="M71.9625 106.142C71.8879 106.885 72.3829 107.669 73.126 107.743C74.057 107.963 74.9374 107.343 75.1088 106.475C75.2318 105.669 74.8621 104.982 74.1674 104.845C73.2506 104.736 72.037 105.399 71.9625 106.142Z" fill="#D3DAE0"/>
<path d="M78.3826 107.807C78.0636 107.96 78.6435 109.41 79.0534 109.527C79.4634 109.644 79.8712 108.858 79.7377 108.255C79.5902 107.54 78.639 107.605 78.3826 107.807Z" fill="#D3DAE0"/>
<path d="M62.5018 107.631C62.4272 108.374 63.2636 109.622 63.9098 109.821C64.6671 110.007 65.5959 109.324 65.7674 108.456C65.8904 107.65 65.1934 106.61 64.4503 106.536C63.5677 106.253 62.6248 106.825 62.5018 107.631Z" fill="#D3DAE0"/>
<path d="M86.4446 119.251C86.2589 120.008 87.0327 121.208 87.7758 121.282C88.5816 121.405 89.5104 120.722 89.6334 119.917C89.7564 119.111 89.3241 118.376 88.6293 118.239C87.6983 118.019 86.5817 118.556 86.4446 119.251Z" fill="#D3DAE0"/>
<path d="M81.0866 117.507C81.0381 117.57 81.0523 117.681 81.0664 117.792C80.927 117.584 80.6907 117.502 80.4545 117.419C79.7456 117.171 79.1903 117.241 78.538 117.437C78.3159 117.466 78.0453 117.557 77.809 117.474C76.9265 117.191 76.3995 117.484 76.117 118.367C75.9917 118.27 75.9291 118.222 75.818 118.236C75.4222 118.23 75.0205 118.62 74.9176 119.141C74.8289 119.773 75.1844 120.348 75.6428 120.403C76.1013 120.457 76.5657 120.116 76.6201 119.657C76.8079 119.803 77.1553 119.871 77.4885 119.829C77.8843 119.835 78.2801 119.841 78.6558 120.131C79.2193 120.567 79.8715 120.371 80.4127 120.189C80.9538 120.008 81.3758 119.333 81.3534 118.715C81.4019 118.652 81.3392 118.604 81.3877 118.541C81.5271 118.749 81.7149 118.895 81.8401 118.992C81.3698 119.729 81.3862 120.743 81.9497 121.179C82.5132 121.615 84.0823 121.527 84.5183 120.964C85.0655 120.386 84.8612 119.227 84.1725 118.694C83.922 118.5 83.5747 118.432 83.2899 118.412C83.3384 118.349 83.3727 118.175 83.4211 118.113C83.5725 117.529 83.1401 116.794 82.7302 116.677C82.1324 116.415 81.2379 116.924 81.0866 117.507Z" fill="#D3DAE0"/>
<path d="M73.0468 123.498C72.9581 124.13 73.6893 124.997 74.384 125.134C74.9677 125.285 75.4805 124.881 75.5692 124.249C75.6923 123.443 75.3993 122.916 74.5309 122.745C73.7878 122.67 73.1012 123.04 73.0468 123.498Z" fill="#D3DAE0"/>
<path d="M68.393 120.198C68.4355 120.531 68.6375 120.787 68.7143 120.947C69.2837 120.987 69.6855 120.597 69.6915 120.202C69.6975 119.806 69.4612 119.723 69.1623 119.592C68.8149 119.523 68.399 119.802 68.393 120.198Z" fill="#D3DAE0"/>
<path d="M64.8258 115.236C64.7915 115.409 64.8825 115.68 65.1188 115.763C65.3551 115.845 65.5489 115.595 65.5832 115.421C65.6175 115.247 65.5608 114.803 65.3245 114.72C65.1508 114.686 64.8601 115.062 64.8258 115.236Z" fill="#D3DAE0"/>
<path d="M76.5076 121.872C76.7439 121.955 76.9377 121.705 77.0346 121.579C77.0689 121.406 77.0123 120.961 76.8386 120.927C76.6649 120.893 76.3116 121.22 76.2773 121.394C76.2915 121.505 76.334 121.838 76.5076 121.872Z" fill="#D3DAE0"/>
<path d="M70.8137 116.165C70.6624 116.748 70.8927 117.227 71.4137 117.33C71.9347 117.433 72.9403 116.909 73.0573 116.499C73.2571 115.853 72.7905 115.292 72.0816 115.044C71.5121 115.003 70.9993 115.407 70.8137 116.165Z" fill="#D3DAE0"/>
<path d="M76.4009 123.692C76.3524 123.755 76.4091 124.199 76.6454 124.282C76.8817 124.365 77.0613 124.003 77.144 123.767C77.1925 123.704 77.0389 123.385 76.8653 123.351C76.6916 123.317 76.4352 123.519 76.4009 123.692Z" fill="#D3DAE0"/>
<path d="M79.2644 124.907C78.7858 125.137 78.3699 125.416 77.7579 125.042C77.3338 124.814 76.9805 125.142 76.7524 125.566C76.9484 126.218 77.421 126.383 77.8995 126.153C78.2551 126.728 78.4854 127.207 78.8126 127.56C79.1399 127.914 79.883 127.988 80.4384 127.917C80.2446 128.168 80.0649 128.529 80.0105 128.988C79.8875 129.794 80.0552 130.224 80.3824 130.577C81.186 129.797 81.9895 129.018 82.7931 128.238C82.5285 127.933 82.1528 127.642 81.6944 127.588C81.5207 127.554 81.2985 127.582 81.0764 127.61C81.4499 126.998 81.482 125.922 81.1406 125.458C80.9445 124.805 80.0135 124.585 79.2644 124.907Z" fill="#D3DAE0"/>
<path d="M95.7504 102.827C95.6736 102.667 95.6594 102.556 95.5484 102.57C95.4857 102.522 95.2778 102.661 95.3404 102.71C95.3545 102.821 95.3203 102.995 95.494 103.029C95.605 103.015 95.6393 102.841 95.7504 102.827Z" fill="#D3DAE0"/>
<path d="M93.5975 102.763C92.6262 103.112 92.3437 103.995 93.0608 104.75C93.2628 105.006 93.5132 105.2 93.8747 105.38C93.7778 105.505 93.7294 105.567 93.6951 105.741C93.5922 106.262 94.2467 106.969 94.8303 107.12C95.414 107.271 96.052 106.964 96.2033 106.381C96.2861 106.144 96.1951 105.874 96.1668 105.652C96.3263 105.575 96.4233 105.45 96.5202 105.324C96.7624 105.011 96.831 104.664 96.5664 104.359C95.9119 103.653 95.098 103.023 94.0559 102.817C93.8681 102.672 93.7085 102.748 93.5975 102.763Z" fill="#D3DAE0"/>
<path d="M85.7171 100.269C85.7052 101.06 86.8583 101.252 87.1006 100.939C87.3428 100.626 87.2154 99.626 86.8054 99.509C86.2217 99.3576 85.7775 99.4143 85.7171 100.269Z" fill="#D3DAE0"/>
<path d="M88.5186 101.435C88.4843 101.609 88.3814 102.13 88.7914 102.247C89.2014 102.364 89.4153 101.829 89.4496 101.655C89.4839 101.481 89.4898 101.086 89.1425 101.017C88.7951 100.948 88.5529 101.261 88.5186 101.435Z" fill="#D3DAE0"/>
<path d="M80.4837 103.927C80.2072 104.413 81.001 105.328 81.3827 105.223C81.7643 105.118 82.0043 103.902 81.5802 103.674C81.2187 103.494 80.6149 103.628 80.4837 103.927Z" fill="#D3DAE0"/>
<path d="M86.734 95.8498C86.2838 96.3023 86.1183 96.7748 86.8414 97.1341C87.5644 97.4934 88.2427 96.6169 88.1376 96.2352C87.9841 95.9162 86.9763 95.5367 86.734 95.8498Z" fill="#D3DAE0"/>
<path d="M98.7638 105.659C98.3054 105.605 98.0631 105.918 98.1056 106.251C98.0855 106.536 98.1846 107.314 98.5804 107.319C98.5804 107.319 98.5804 107.319 98.6915 107.305C98.9196 106.881 99.1477 106.457 99.4242 105.97C99.2364 105.825 99.0485 105.68 98.7638 105.659Z" fill="#D3DAE0"/>
<path d="M90.9946 103.151C91.0088 103.262 91.336 103.615 91.5581 103.587C91.7803 103.558 91.8347 103.1 91.7579 102.94C91.6811 102.781 91.4307 102.587 91.2086 102.615C91.0975 102.63 91.0289 102.977 90.9946 103.151Z" fill="#D3DAE0"/>
<path d="M87.0395 107.098C87.3727 107.055 87.7402 106.839 87.934 106.589C88.1278 106.338 87.7097 105.714 87.3139 105.708C87.0291 105.688 86.8353 105.939 86.6758 106.016C86.476 106.662 86.7063 107.14 87.0395 107.098Z" fill="#D3DAE0"/>
<path d="M82.6628 103.31C82.8506 103.456 83.2949 103.399 83.4544 103.322C83.8219 103.106 83.7026 102.614 83.4522 102.42C83.2643 102.274 82.6665 102.012 82.3758 102.388C81.974 102.777 82.4749 103.165 82.6628 103.31Z" fill="#D3DAE0"/>
<path d="M87.1751 108.604C87.058 109.014 87.3994 109.479 87.8578 109.533C88.2678 109.65 88.6837 109.372 88.6271 108.927C88.5846 108.594 88.4311 108.275 88.2432 108.13C88.0554 107.984 87.2437 108.257 87.1751 108.604Z" fill="#D3DAE0"/>
<path d="M94.3585 110.059C94.3585 110.059 94.31 110.121 94.3585 110.059C94.2616 110.184 94.1505 110.198 94.0253 110.101C93.6496 109.81 93.4879 108.984 92.9728 108.486C92.3325 107.89 91.4015 107.67 90.8201 108.422C90.1418 109.298 90.3661 110.173 91.0064 110.768C91.9598 111.606 92.6582 110.445 93.0421 111.242C93.4744 111.977 92.6343 112.028 93.2687 113.019C93.6242 113.595 94.1594 113.809 94.6663 113.801C94.9913 113.251 95.3789 112.75 95.7039 112.201C95.6897 112.09 95.613 111.93 95.5362 111.771C95.6815 111.583 96.4165 111.151 96.061 110.575C95.9984 110.527 95.9216 110.367 95.859 110.319C96.0528 110.068 96.184 109.769 96.093 109.499C95.9738 109.006 95.2992 108.584 94.6753 109.002C94.4189 109.204 94.2675 109.788 94.3585 110.059Z" fill="#D3DAE0"/>
<path d="M78.3482 99.5714C78.3766 99.7935 78.5301 100.113 78.7179 100.258C79.0795 100.438 79.4954 100.159 79.4529 99.8256C79.4731 99.5408 79.4507 98.9229 78.9297 98.82C78.4086 98.7171 78.431 99.3351 78.3482 99.5714Z" fill="#D3DAE0"/>
<path d="M87.806 102.486C87.4385 102.702 87.2872 103.285 87.5518 103.59C87.8306 104.006 88.9897 103.802 89.1067 103.392C89.1753 103.045 88.2845 102.255 87.806 102.486Z" fill="#D3DAE0"/>
<path d="M89.8244 107.25C89.8669 107.584 91.3532 107.733 91.6581 107.468C91.963 107.203 91.468 106.42 90.8844 106.269C90.1897 106.132 89.7819 106.917 89.8244 107.25Z" fill="#D3DAE0"/>
<path d="M159.919 72.2965C180.389 45.8426 175.539 7.80263 149.085 -12.6682C122.631 -33.1391 84.5915 -28.2889 64.1207 -1.83499C43.6498 24.6189 48.5 62.6589 74.9539 83.1297C101.408 103.601 139.448 98.7504 159.919 72.2965Z" fill="#F04E98"/>
<path d="M109.848 83.7026C110.153 83.438 110.208 82.9796 109.929 82.5636C109.602 82.2103 109.254 82.1417 108.949 82.4063C108.596 82.7336 108.348 83.4424 108.612 83.7473C108.814 84.0037 109.543 83.9672 109.848 83.7026Z" fill="#E32682"/>
<path d="M112.703 89.7158C113.062 88.9927 112.977 88.3263 112.163 87.6965C111.893 87.7874 111.511 87.8925 111.192 88.046C110.665 88.339 110.465 88.9852 110.57 89.3669C110.815 89.9565 111.316 90.3441 111.92 90.2107C112.253 90.1682 112.62 89.9521 112.703 89.7158Z" fill="#E32682"/>
<path d="M116.068 91.3186C116.51 90.3593 116.3 89.596 115.688 89.2226C115.138 88.8976 113.882 89.227 113.571 89.8874C113.164 90.6731 113.645 91.3454 114.083 91.6846C114.521 92.0237 115.626 92.278 116.068 91.3186Z" fill="#E32682"/>
<path d="M118.929 88.5271C119.678 88.2058 120.53 87.3635 120.422 86.0792C120.323 85.3018 119.919 84.7889 119.433 84.5124C118.883 84.1874 118.225 84.7792 117.544 84.7531C115.884 84.5697 115.533 85.7996 115.675 86.9103C115.669 87.3061 115.885 87.6736 116.087 87.93C116.414 88.2833 116.887 88.4488 117.442 88.378C118.012 88.4182 118.402 88.82 118.929 88.5271Z" fill="#E32682"/>
<path d="M109.36 90.9324C109.491 90.6335 109.246 90.0439 109.03 89.6764C109.078 89.6138 109.141 89.6622 109.19 89.5996C109.557 89.3834 109.694 88.6887 109.43 88.3839C109.165 88.079 108.547 88.1013 107.923 88.5195C107.889 88.6932 107.869 88.9779 107.897 89.2001C107.96 89.2485 107.974 89.3596 107.974 89.3596C107.703 89.4505 107.447 89.6525 107.33 90.0625C107.13 90.7087 107.284 91.0278 107.992 91.276C108.653 91.5868 109.194 91.405 109.36 90.9324Z" fill="#E32682"/>
<path d="M113.071 75.7862C112.835 75.7035 112.69 75.8913 112.641 75.9539C112.607 76.1276 112.538 76.4749 112.726 76.6203C112.963 76.703 113.156 76.4526 113.142 76.3415C113.225 76.1053 113.308 75.869 113.071 75.7862Z" fill="#E32682"/>
<path d="M110.111 86.2086C110.029 86.4449 110.043 86.556 110.279 86.6387C110.515 86.7214 110.626 86.7073 110.709 86.471C110.792 86.2347 110.778 86.1236 110.541 86.0409C110.416 85.944 110.257 86.0208 110.111 86.2086Z" fill="#E32682"/>
<path d="M107.331 87.8614C107.505 87.8957 107.747 87.5826 107.781 87.409C107.816 87.2353 107.517 87.1041 107.343 87.0698C107.26 87.3061 107.178 87.5424 107.143 87.7161C107.22 87.8756 107.283 87.924 107.331 87.8614Z" fill="#E32682"/>
<path d="M105.428 93.2958C105.414 93.1848 105.4 93.0737 105.323 92.9142C105.192 93.2131 105.06 93.512 104.992 93.8593C105.2 93.7199 105.394 93.4695 105.428 93.2958Z" fill="#E32682"/>
<path d="M106.56 90.6686C106.865 90.404 106.92 89.9455 106.621 89.8143L106.558 89.7659C106.441 90.1759 106.261 90.5374 106.144 90.9473C106.241 90.8221 106.401 90.7453 106.56 90.6686Z" fill="#E32682"/>
<path d="M115.057 86.9322C115.237 86.5707 115.035 86.3143 114.687 86.2457C114.388 86.1145 114.104 86.0944 113.924 86.4559C113.793 86.7548 113.975 87.2959 114.447 87.4614C114.593 87.2736 114.912 87.12 115.057 86.9322Z" fill="#E32682"/>
<path d="M111.625 80.3723C111.138 80.0958 110.805 80.1382 110.466 80.5765C110.078 81.0774 110.288 81.8407 110.789 82.2284C111.29 82.616 111.658 82.3998 111.971 82.6421C112.284 82.8843 112.554 82.7934 112.922 82.5772C113.338 82.2985 113.851 81.8945 113.447 81.3816C113.043 80.8688 112.675 81.0849 112.516 81.1617C112.419 81.2869 111.96 81.2325 112.057 81.1073C112.251 80.8568 112.112 80.6489 111.625 80.3723Z" fill="#E32682"/>
<path d="M108.465 83.0327C108.417 83.0954 108.382 83.269 108.396 83.3801C108.445 83.3175 108.479 83.1438 108.465 83.0327Z" fill="#E32682"/>
<path d="M152.955 75.2154C152.975 74.9307 152.822 74.6117 152.634 74.4663C152.446 74.321 151.731 74.4685 151.614 74.8785C151.545 75.2258 151.824 75.6418 152.172 75.7104C152.582 75.8274 152.949 75.6113 152.955 75.2154Z" fill="#E32682"/>
<path d="M146.902 70.2307C146.589 69.9884 146.047 70.1703 145.854 70.4207C145.625 70.8449 146.294 71.6626 146.627 71.6201C147.009 71.515 147.326 70.4588 146.902 70.2307Z" fill="#E32682"/>
<path d="M151.666 73.5176C151.951 73.5377 152.318 73.3215 152.464 73.1337C152.658 72.8833 152.302 72.3078 151.906 72.3018C151.684 72.3301 151.428 72.5321 151.317 72.5463C151.103 73.0815 151.333 73.5601 151.666 73.5176Z" fill="#E32682"/>
<path d="M132.502 73.7031C132.639 73.0084 132.067 72.0655 131.484 71.9142C130.664 71.6801 129.769 72.1892 129.632 72.8839C129.564 73.2313 129.669 73.6129 129.947 74.0289C129.871 73.8693 129.745 73.7724 129.572 73.7381C129.037 73.5242 128.336 73.7828 128.108 74.207C127.88 74.6311 128.298 75.255 128.958 75.5659C129.32 75.7455 129.847 75.4526 130.026 75.091C130.158 74.7921 130.115 74.4589 129.962 74.1399C130.178 74.5074 130.505 74.8607 130.852 74.9293C131.547 75.0665 132.379 74.5089 132.502 73.7031Z" fill="#E32682"/>
<path d="M140.592 82.2663C140.723 81.9674 140.618 81.5857 140.27 81.5172C139.986 81.497 139.556 81.6648 139.521 81.8384C139.439 82.0747 139.655 82.4422 139.731 82.6017C140.267 82.8157 140.46 82.5652 140.592 82.2663Z" fill="#E32682"/>
<path d="M134.809 77.1904C134.587 77.2188 134.254 77.2612 134.108 77.4491C133.721 77.95 133.999 78.3659 134.5 78.7535C134.93 78.5858 135.486 78.515 135.463 77.8971C135.421 77.5639 135.156 77.259 134.809 77.1904Z" fill="#E32682"/>
<path d="M144.324 75.2437C144.623 75.3749 145.107 74.7487 144.974 74.145C144.84 73.5412 144.111 73.5777 143.792 73.7313C143.584 73.8706 144.025 75.1125 144.324 75.2437Z" fill="#E32682"/>
<path d="M137.822 80.023C137.35 79.8575 136.837 80.2615 136.637 80.9077C136.472 81.3803 136.702 81.8589 137.112 81.9759C137.633 82.0788 138.493 81.7433 138.61 81.3334C138.873 80.7356 138.469 80.2227 137.822 80.023Z" fill="#E32682"/>
<path d="M118.645 83.2018C118.972 83.5552 119.348 83.8459 119.764 83.5671C120.131 83.3509 120.248 82.941 120.032 82.5735C119.893 82.3655 119.579 82.1232 119.357 82.1516C118.913 82.2082 118.685 82.6323 118.645 83.2018Z" fill="#E32682"/>
<path d="M154.134 63.2136C154.148 63.3247 154.142 63.7205 154.426 63.7406C154.774 63.8092 154.842 63.4618 154.877 63.2882C154.863 63.1771 154.661 62.9207 154.598 62.8723C154.438 62.949 154.119 63.1026 154.134 63.2136Z" fill="#E32682"/>
<path d="M151.816 66.7261C151.281 66.5121 150.837 66.5688 150.762 67.3119C150.688 68.0551 151.73 68.2608 152.035 67.9962C152.229 67.7458 152.164 66.7946 151.816 66.7261Z" fill="#E32682"/>
<path d="M145.261 66.6592C145.296 66.4855 145.273 65.8676 144.863 65.7506C144.453 65.6335 144.302 66.2172 144.268 66.3908C144.233 66.5645 144.45 66.932 144.575 67.0289C144.874 67.1601 145.179 66.8955 145.261 66.6592Z" fill="#E32682"/>
<path d="M135.761 68.7166C135.789 68.9387 136.358 68.979 136.469 68.9648C136.629 68.8881 136.76 68.5892 136.683 68.4296C136.607 68.2701 136.308 68.1389 136.134 68.1046C135.975 68.1814 135.684 68.5571 135.761 68.7166Z" fill="#E32682"/>
<path d="M118.265 72.6969C118.049 72.3295 117.354 72.1923 117.092 72.7901C116.892 73.4364 117.664 73.733 117.983 73.5795C118.302 73.4259 118.405 72.9049 118.265 72.6969Z" fill="#E32682"/>
<path d="M120.569 80.5861C120.403 81.0587 120.696 81.5857 121.231 81.7997C121.829 82.062 122.752 81.7751 122.869 81.3651C123.131 80.7673 122.748 79.9697 122.15 79.7073C121.663 79.4308 120.817 79.8773 120.569 80.5861Z" fill="#E32682"/>
<path d="M127.683 79.2843C127.849 78.8117 127.527 78.0626 126.992 77.8486C126.457 77.6347 126.041 77.9135 125.73 78.5739C125.565 79.0465 125.775 79.8098 126.136 79.9894C126.609 80.1549 127.469 79.8195 127.683 79.2843Z" fill="#E32682"/>
<path d="M115.869 78.251C115.653 77.8836 115.431 77.9119 114.696 78.3442C114.496 78.9905 115.267 79.2871 115.586 79.1336C115.905 78.98 116.071 78.5075 115.869 78.251Z" fill="#E32682"/>
<path d="M122.084 75.6521C122.125 75.0827 121.909 74.7152 121.373 74.5012C120.949 74.2731 120.471 74.5035 120.166 74.7681C119.909 74.9701 119.73 75.3316 119.599 75.6305C119.425 75.5962 119.265 75.673 119.092 75.6387C118.425 75.7236 117.864 76.1903 117.713 76.7739C117.624 77.406 117.868 77.9956 118.321 78.4459C118.509 78.5912 118.745 78.6739 118.967 78.6456C119.856 78.5323 120.292 77.9688 120.289 77.0661C120.324 76.8925 120.247 76.7329 120.281 76.5593C120.615 76.5168 120.962 76.5854 121.184 76.557C121.85 76.4721 122.044 76.2216 122.084 75.6521Z" fill="#E32682"/>
<path d="M142.447 79.9978C142.564 79.5878 142.334 79.1093 141.924 78.9923C141.514 78.8752 140.924 79.1197 140.807 79.5297C140.69 79.9396 140.969 80.3556 141.379 80.4726C141.9 80.5755 142.378 80.3452 142.447 79.9978Z" fill="#E32682"/>
<path d="M125.173 80.8459C125.125 80.9085 125.167 81.2417 125.403 81.3245C125.64 81.4072 125.819 81.0457 125.854 80.872C125.902 80.8094 125.811 80.5388 125.637 80.5045C125.464 80.4702 125.207 80.6722 125.173 80.8459Z" fill="#E32682"/>
<path d="M131.643 80.2463C131.817 80.2806 132.073 80.0786 132.059 79.9675C132.156 79.8423 132.099 79.398 131.863 79.3153C131.689 79.281 131.385 79.5456 131.35 79.7193C131.379 79.9414 131.47 80.212 131.643 80.2463Z" fill="#E32682"/>
<path d="M138.812 78.4857C139.242 78.318 139.248 77.9222 138.912 77.062C138.454 77.0076 137.981 76.8421 137.719 77.4399C137.602 77.8499 137.707 78.2316 138.068 78.4112C138.319 78.605 138.652 78.5625 138.812 78.4857Z" fill="#E32682"/>
<path d="M153.988 68.7064C154.022 68.5327 153.979 68.1995 153.743 68.1168C153.507 68.034 153.25 68.236 153.216 68.4097C153.182 68.5834 153.127 69.0418 153.426 69.173C153.677 69.3668 153.953 68.8801 153.988 68.7064Z" fill="#E32682"/>
<path d="M150.605 79.8041C150.517 80.4362 150.699 80.9774 151.22 81.0803C151.331 81.0661 151.442 81.0519 151.615 81.0862C152.017 80.6964 152.482 80.355 152.883 79.9652C152.889 79.5694 152.437 79.1191 151.916 79.0163C151.158 78.8306 150.742 79.1094 150.605 79.8041Z" fill="#E32682"/>
<path d="M147.157 75.3341C146.943 75.8693 146.903 76.4388 146.863 77.0083C146.823 77.5778 147.477 78.2844 148.109 78.3731C148.457 78.4417 148.727 78.3508 148.907 77.9893C149.189 77.1067 149.423 76.2868 149.199 75.4124C149.122 75.2529 149.045 75.0934 148.983 75.0449C148.266 74.2898 147.44 74.4515 147.157 75.3341Z" fill="#E32682"/>
<path d="M155.622 72.6744C155.587 72.8481 155.901 73.0904 156.074 73.1247C156.137 73.1731 156.407 73.0822 156.442 72.9085C156.476 72.7348 156.337 72.5269 156.211 72.43C156.038 72.3957 155.656 72.5008 155.622 72.6744Z" fill="#E32682"/>
<path d="M154.94 74.8494C154.345 75.4897 154.43 76.1561 154.834 76.669C154.5 76.7114 153.848 76.9075 153.766 77.1438C153.683 77.38 154.357 77.802 154.517 77.7252C154.836 77.5716 155.28 77.515 155.397 77.105C155.46 77.1535 155.522 77.2019 155.571 77.1393C156.118 76.5616 156.665 75.984 157.212 75.4063C157.135 75.2468 157.059 75.0872 156.933 74.9903C156.356 74.4432 155.536 74.2091 154.94 74.8494Z" fill="#E32682"/>
<path d="M140.977 72.4533C141.114 71.7586 140.807 71.1205 140.223 70.9692C139.466 70.7836 138.349 71.321 138.212 72.0157C138.075 72.7104 138.493 73.3343 139.14 73.5341C140.008 73.7055 140.791 73.2106 140.977 72.4533Z" fill="#E32682"/>
<path d="M138.655 82.5693C137.869 82.1615 137.55 82.3151 137.191 83.0381C136.929 83.6359 136.604 84.1853 136.341 84.7831C135.98 84.6034 135.744 84.5207 135.521 84.549C135.521 84.549 135.521 84.549 135.57 84.4864C135.638 84.139 135.34 84.0078 135.103 83.9251C134.693 83.8081 134.326 84.0242 134.368 84.3574C134.348 84.6422 134.55 84.8986 134.627 85.0581C134.801 85.0924 134.912 85.0782 135.023 85.0641C135.037 85.1751 134.988 85.2377 134.954 85.4114C135.407 85.8616 135.788 85.7565 136.253 85.4152C137.428 86.2247 138.163 85.7924 138.298 84.195C138.409 84.1808 138.458 84.1182 138.569 84.1041C139.013 84.0474 139.081 83.7 139.087 83.3042C139.093 82.9084 138.954 82.7005 138.655 82.5693Z" fill="#E32682"/>
<path d="M143.373 78.4122C143.165 78.5515 143.048 78.9615 143.139 79.2321C143.321 79.7733 144.127 79.8963 144.494 79.6801C144.91 79.4013 144.874 78.6723 144.324 78.3473C144.025 78.2161 143.581 78.2728 143.373 78.4122Z" fill="#E32682"/>
<path d="M138.389 87.5695C138.287 88.0906 138.907 88.9709 139.49 89.1222C139.553 89.1707 139.601 89.108 139.601 89.108C139.92 88.9545 140.128 88.8151 140.447 88.6616C140.496 88.5989 140.593 88.4737 140.579 88.3627C140.764 87.6053 140.485 87.1894 139.728 87.0038C139.082 86.804 138.444 87.1111 138.389 87.5695Z" fill="#E32682"/>
<path d="M147.967 82.5672C147.862 82.1855 147.708 81.8665 147.423 81.8464C146.84 81.6951 145.994 82.1415 145.891 82.6626C145.842 82.7252 145.856 82.8362 145.919 82.8847C145.842 82.7252 145.654 82.5798 145.418 82.4971C144.82 82.2347 144.265 82.3055 143.661 82.4389C143.439 82.4672 143.217 82.4956 142.981 82.4128C142.209 82.1161 141.731 82.3465 141.434 83.1179C141.371 83.0695 141.246 82.9726 141.135 82.9867C140.788 82.9182 140.386 83.308 140.332 83.7664C140.229 84.2875 140.473 84.8771 140.932 84.9315C141.342 85.0485 141.758 84.7697 141.86 84.2487C141.986 84.3456 142.222 84.4284 142.444 84.4C142.569 84.497 142.583 84.608 142.694 84.5939C142.868 84.6281 143.216 84.6967 143.25 84.523C143.423 84.5573 143.549 84.6542 143.674 84.7511C144.126 85.2014 144.73 85.0679 145.271 84.8861C145.382 84.8719 145.431 84.8093 145.542 84.7952C145.605 84.8436 145.73 84.9405 145.841 84.9263C146.126 84.9465 146.319 84.696 146.305 84.585C146.339 84.4113 146.311 84.1891 146.075 84.1064C146.109 83.9327 146.206 83.8075 146.192 83.6964C146.24 83.6338 146.178 83.5854 146.178 83.5854C146.38 83.8418 146.644 84.1467 146.992 84.2152C147.513 84.3181 147.915 83.9283 148.114 83.282C148.177 83.3305 148.177 83.3305 148.24 83.3789C148.538 83.5101 148.655 83.1002 148.752 82.9749C148.801 82.9123 148.647 82.5933 148.536 82.6074C148.286 82.4136 148.064 82.4419 147.967 82.5672Z" fill="#E32682"/>
<path d="M159.799 68.6994C159.731 69.0468 159.87 69.2547 159.884 69.3658C160.266 69.2607 160.912 69.4605 161.092 69.099C161.272 68.7374 160.708 68.3014 160.555 67.9824C160.443 67.9965 160.381 67.9481 160.332 68.0107C159.84 68.1299 159.805 68.3036 159.799 68.6994Z" fill="#E32682"/>
<path d="M157.587 72.5934C157.47 73.0033 158.013 73.7241 158.597 73.8755C158.985 73.3746 159.435 72.9221 159.774 72.4838C159.669 72.1022 159.404 71.7973 159.12 71.7772C158.473 71.5774 157.738 72.0097 157.587 72.5934Z" fill="#E32682"/>
<path d="M164.518 64.5418C164.108 64.4248 163.803 64.6894 163.845 65.0226C163.874 65.2447 164.076 65.5012 164.104 65.7233C164.167 65.7717 164.215 65.7091 164.326 65.695C164.554 65.2708 164.797 64.9578 165.025 64.5336C164.976 64.5962 164.928 64.6589 164.928 64.6589C164.754 64.6246 164.629 64.5277 164.518 64.5418Z" fill="#E32682"/>
<path d="M157.744 63.2048C157.696 63.2675 157.801 63.6491 157.975 63.6834C158.211 63.7661 158.328 63.3562 158.425 63.2309C158.473 63.1683 158.32 62.8493 158.209 62.8634C158.035 62.8291 157.841 63.0796 157.744 63.2048Z" fill="#E32682"/>
<path d="M168.141 50.0274C168.03 50.0416 167.74 50.4173 167.768 50.6394C167.796 50.8615 168.366 50.9018 168.525 50.825C168.685 50.7482 168.753 50.4009 168.677 50.2414C168.6 50.0819 168.301 49.9507 168.141 50.0274Z" fill="#E32682"/>
<path d="M161.842 55.0634C161.753 55.6955 162.527 56.8949 163.159 56.9836C163.854 57.1208 164.685 56.5632 164.808 55.7574C164.946 55.0627 164.263 54.1339 163.631 54.0452C162.762 53.8738 161.916 54.3203 161.842 55.0634Z" fill="#E32682"/>
<path d="M163.893 61.8565C163.859 62.0302 163.95 62.3008 164.123 62.3351C164.297 62.3694 164.554 62.1674 164.539 62.0563C164.574 61.8826 164.469 61.501 164.295 61.4667C164.232 61.4182 163.99 61.7313 163.893 61.8565Z" fill="#E32682"/>
<path d="M157.448 67.0801C157.776 67.4334 157.602 67.3991 157.374 67.8232C157.208 68.2958 157.245 69.0248 158.037 69.0368C158.891 69.0971 159.41 68.2973 159.595 67.54C159.67 66.7968 158.688 65.7369 157.737 65.8017C157.182 65.8725 157.121 66.7267 157.448 67.0801Z" fill="#E32682"/>
<path d="M159.275 69.8949C159.289 70.0059 159.255 70.1796 159.366 70.1655C159.428 70.2139 159.525 70.0887 159.574 70.0261C159.559 69.915 159.545 69.8039 159.434 69.8181C159.372 69.7696 159.212 69.8464 159.275 69.8949Z" fill="#E32682"/>
<path d="M161.066 69.7788C160.983 70.0151 161.074 70.2857 161.213 70.4937C161.504 70.118 161.795 69.7423 161.974 69.3808C161.502 69.2153 161.134 69.4315 161.066 69.7788Z" fill="#E32682"/>
<path d="M132.282 83.0435C132.316 82.8699 132.254 82.8214 132.24 82.7103C132.337 82.5851 132.322 82.4741 132.419 82.3488C132.571 81.7652 132.138 81.0302 131.492 80.8304C130.846 80.6306 130.076 81.2366 129.842 82.0566C129.691 82.6402 129.984 83.1672 130.693 83.4155C130.929 83.4982 131.103 83.5325 131.325 83.5042C131.339 83.6152 131.464 83.7121 131.479 83.8232C131.86 83.7181 132.214 83.3909 132.282 83.0435Z" fill="#E32682"/>
<path d="M147.603 73.0759C147.492 73.09 147.375 73.5 147.515 73.7079C147.654 73.9159 148.021 73.6997 148.07 73.6371C148.167 73.5119 148.25 73.2756 148.173 73.1161C148.033 72.9081 147.763 72.9991 147.603 73.0759Z" fill="#E32682"/>
<path d="M137.48 90.1683C137.958 89.938 138.548 89.6935 139.026 89.4632C138.318 89.215 137.791 89.5079 137.48 90.1683Z" fill="#E32682"/>
<path d="M115.018 93.7101C114.54 93.9404 114.465 94.6835 114.806 95.1479C114.946 95.3559 115.196 95.5497 115.433 95.6325C115.433 95.6325 115.433 95.6325 115.384 95.6951C115.828 95.6384 116.287 95.6929 116.731 95.6362C116.717 95.5251 116.592 95.4282 116.529 95.3798C116.723 95.1293 116.743 94.8446 116.715 94.6225C116.658 94.1782 116.297 93.9986 115.949 93.93C115.699 93.7362 115.386 93.4939 115.018 93.7101Z" fill="#E32682"/>
<path d="M121.915 94.241C121.79 94.1441 121.616 94.1098 121.616 94.1098C121.331 94.0897 120.727 94.2231 120.534 94.4736L120.519 94.3625C120.546 93.682 120.218 93.3286 119.586 93.2399C119.413 93.2056 119.287 93.1087 119.162 93.0118C118.675 92.7353 118.28 92.7293 118.1 93.0908C117.872 93.515 118.039 93.945 118.637 94.2074C118.7 94.2559 118.748 94.1933 118.811 94.2417C119.11 94.3729 119.249 94.5809 118.944 94.8455C118.847 94.9707 118.736 94.9849 118.64 95.1101C118.543 95.2354 118.446 95.3606 118.411 95.5342C119.251 95.4836 120.077 95.3218 120.855 95.2227C121.632 95.1236 122.347 94.976 123.173 94.8143C122.88 94.2873 122.408 94.1218 121.915 94.241Z" fill="#E32682"/>
<path d="M114.333 91.8784C114.208 91.7815 113.986 91.8099 113.826 91.8866C113.715 91.9008 113.536 92.2623 113.724 92.4077C113.911 92.553 114.23 92.3995 114.341 92.3853C114.376 92.2116 114.458 91.9753 114.333 91.8784Z" fill="#E32682"/>
<path d="M109.107 92.9397C108.578 92.33 107.946 92.2413 107.385 92.7079C106.872 93.1119 106.735 93.8066 107.062 94.1599C107.577 94.6586 108.494 94.7674 109.055 94.3008C109.423 94.0847 109.449 93.4041 109.107 92.9397Z" fill="#E32682"/>
<path d="M106.218 95.5088C107.072 95.5692 107.989 95.678 108.844 95.7384C108.627 95.3709 108.3 95.0176 107.89 94.9006C107.403 94.624 106.606 95.0079 106.218 95.5088Z" fill="#E32682"/>
<path d="M119.808 90.1082C119.252 90.179 118.574 91.0555 118.756 91.5967C118.938 92.1379 119.863 92.7536 120.612 92.4323C121.361 92.1111 121.623 91.5133 121.553 90.9579C121.419 90.3542 120.585 90.009 119.808 90.1082Z" fill="#E32682"/>
<path d="M104.875 94.269C104.744 94.5679 104.627 94.9779 104.495 95.2768C104.891 95.2828 105.301 95.3998 105.697 95.4058C105.606 95.1352 105.515 94.8646 105.376 94.6567C105.188 94.5113 105 94.3659 104.875 94.269Z" fill="#E32682"/>
<path d="M110.382 94.5264C110.154 94.9505 110.384 95.4291 110.711 95.7824C111.281 95.8226 111.899 95.8003 112.406 95.7921C112.662 95.5901 112.904 95.277 113.021 94.8671C113.221 94.2208 112.803 93.5969 112.171 93.5082C111.003 93.2056 110.761 93.5186 110.382 94.5264Z" fill="#E32682"/>
<path d="M135.405 88.0632C135.522 87.6532 135.48 87.32 135.021 87.2656C134.737 87.2455 134.09 87.0457 133.925 87.5183C133.759 87.9909 134.357 88.2533 134.608 88.4471C134.921 88.6893 135.288 88.4732 135.405 88.0632Z" fill="#E32682"/>
<path d="M134.083 89.6425C133.715 89.8587 133.342 90.4707 133.398 90.9149C133.503 91.2966 133.816 91.5388 134.053 91.6216C134.802 91.3003 135.503 91.0417 136.252 90.7204C136.189 90.672 136.189 90.672 136.189 90.672C135.953 90.5892 135.731 90.6175 135.509 90.6459C135.605 90.5206 135.64 90.347 135.549 90.0764C135.367 89.5352 134.61 89.3496 134.083 89.6425Z" fill="#E32682"/>
<path d="M136.996 88.5937C137.114 88.1838 136.786 87.8305 136.314 87.665C135.904 87.5479 135.536 87.7641 135.419 88.1741C135.254 88.6467 135.47 89.0141 135.88 89.1312C136.401 89.234 136.879 89.0037 136.996 88.5937Z" fill="#E32682"/>
<path d="M131.609 88.8291C131.498 88.8432 131.324 88.809 131.165 88.8857C131.248 88.6495 131.268 88.3647 131.302 88.191C131.245 87.7468 131.126 87.2541 130.508 87.2764C130.223 87.2563 129.939 87.2362 129.654 87.216L129.702 87.1534C129.902 86.5072 129.219 85.5784 128.448 85.2817C127.802 85.0819 127.115 85.4516 126.818 86.2231C126.55 87.2167 126.857 87.8548 127.802 88.1858C127.976 88.2201 128.15 88.2543 128.261 88.2402C128.338 88.3997 128.463 88.4966 128.636 88.5309C128.935 88.6621 129.186 88.8559 129.325 89.0639C129.541 89.4314 129.903 89.611 130.299 89.617C130.25 89.6796 130.202 89.7422 130.216 89.8533C130.147 90.2006 130.454 90.8387 130.864 90.9557C131.511 91.1555 132.163 90.9595 132.314 90.3758C132.417 89.8548 132.144 89.043 131.609 88.8291Z" fill="#E32682"/>
<path d="M125.477 94.2954C125.748 94.2045 126.081 94.162 126.351 94.0711C126.067 94.0509 125.733 94.0934 125.477 94.2954Z" fill="#E32682"/>
<path d="M124.566 85.3813C124.338 85.8054 124.375 86.5345 125.18 86.6575C126.035 86.7178 126.616 85.9665 126.753 85.2718C126.89 84.5771 126.097 83.6624 125.277 83.4284C125.234 83.0952 124.984 82.9014 124.685 82.7702C124.038 82.5704 123.338 82.829 123.235 83.3501C123.118 83.76 123.223 84.1417 123.377 84.4607C123.106 84.5517 122.912 84.8021 122.892 85.0869C122.852 85.6563 123.324 85.8218 123.748 86.0499C124.102 85.7227 124.629 85.4298 124.336 84.9028C124.273 84.8543 124.322 84.7917 124.259 84.7432C124.37 84.7291 124.419 84.6665 124.578 84.5897L124.641 84.6381C124.92 85.0541 124.794 84.9572 124.566 85.3813Z" fill="#E32682"/>
<path d="M126.166 89.5228C126.429 88.925 125.92 88.0305 125.211 87.7823C124.565 87.5825 123.496 88.0573 123.297 88.7036C123 89.4751 123.398 90.3837 124.093 90.5209C124.676 90.6722 125.952 90.058 126.166 89.5228Z" fill="#E32682"/>
<path d="M122.53 90.2125C122.495 90.3862 122.809 90.6285 122.934 90.7254C122.996 90.7738 123.267 90.6829 123.301 90.5092C123.336 90.3355 123.196 90.1276 123.071 90.0307C122.946 89.9338 122.612 89.9762 122.53 90.2125Z" fill="#E32682"/>
<path d="M127.579 90.4155C127.496 90.6518 127.601 91.0334 127.803 91.2898C127.595 91.4292 127.464 91.7281 127.367 91.8534C127.236 92.1523 127.216 92.437 127.577 92.6167C127.939 92.7963 128.48 92.6144 128.486 92.2186C128.52 92.0449 128.492 91.8228 128.401 91.5522C128.734 91.5097 128.99 91.3077 129.122 91.0088C129.239 90.5989 129.057 90.0577 128.709 89.9891C128.41 89.8579 127.71 90.1166 127.579 90.4155Z" fill="#E32682"/>
<path d="M79.2309 -15.6694C73.6016 -12.017 68.4329 -7.40755 64.1207 -1.83499C43.6739 24.5877 48.4686 62.6345 74.9539 83.1297C83.8449 90.0099 94.0621 94.0121 104.495 95.2779C119.747 57.3275 110.395 12.7509 79.2309 -15.6694Z" fill="#FF957D"/>
</g>
<defs>
<clipPath id="clip0">
<rect width="214" height="214" fill="white"/>
</clipPath>
</defs>
</svg>
