<svg width="214" height="214" viewBox="0 0 214 214" fill="none" xmlns="http://www.w3.org/2000/svg">
<g clip-path="url(#clip0)">
<path d="M118 237C153.899 237 183 207.899 183 172C183 136.101 153.899 107 118 107C82.1015 107 53 136.101 53 172C53 207.899 82.1015 237 118 237Z" fill="#7DE2D1"/>
<path d="M73.4879 199.872C73.2799 200.704 74.1119 201.848 74.9439 202.056C75.8799 202.264 76.8159 201.744 76.9199 201.016V200.912H77.0239C77.6479 200.808 78.1679 200.08 78.0639 199.56C77.9599 199.04 77.1279 198.624 76.7119 198.832C76.6079 198.832 76.6079 198.936 76.5039 198.936C76.2959 198.728 76.0879 198.52 75.7759 198.416C74.9439 198.208 73.5919 199.04 73.4879 199.872Z" fill="#42D4C6"/>
<path d="M93.0401 202.68C93.6641 202.472 93.8721 201.536 93.5601 200.704C93.3521 200.184 92.9361 200.08 92.5201 200.184C91.7921 200.392 91.2721 201.12 91.4801 201.64C91.6881 202.368 92.6241 202.888 93.0401 202.68Z" fill="#42D4C6"/>
<path d="M58.6159 184.792C57.6799 185.104 56.4319 186.04 56.4319 187.704C56.4319 188.744 56.8479 189.368 57.4719 189.784C58.1999 190.304 59.0319 189.576 59.8639 189.784C60.0719 189.784 60.1759 189.888 60.2799 189.888C60.1759 190.2 60.0719 190.512 60.3839 190.824C60.6959 191.24 61.1119 191.552 61.5279 191.24C61.8399 191.032 62.2559 190.616 62.2559 190.304C62.2559 189.888 62.0479 189.68 61.8399 189.576C62.3599 189.056 62.5679 188.224 62.6719 187.496C62.6719 186.976 62.5679 186.56 62.2559 186.144C61.9439 185.624 61.3199 185.416 60.5919 185.312C59.7599 185.104 59.3439 184.584 58.6159 184.792Z" fill="#42D4C6"/>
<path d="M60.9037 179.8C60.7997 180.32 61.1117 180.944 61.6317 181.048C62.1517 181.152 62.5677 180.944 62.7757 180.424C62.9837 179.8 62.6717 179.28 62.1517 179.176C61.6317 178.968 61.0077 179.28 60.9037 179.8Z" fill="#42D4C6"/>
<path d="M62.3598 166.488C62.2558 166.488 62.0478 166.488 61.9438 166.696C61.9438 166.904 62.0478 167.008 62.1518 167.008C62.2558 167.008 62.4638 166.904 62.4638 166.8C62.5678 166.696 62.4638 166.488 62.3598 166.488Z" fill="#42D4C6"/>
<path d="M61.7363 172.936C61.6323 173.56 61.9443 174.08 62.5683 174.184C63.0883 174.288 63.7123 173.768 63.8163 173.248C63.9203 172.728 63.5043 172.208 62.9843 172.104C62.3603 172 61.9443 172.312 61.7363 172.936Z" fill="#42D4C6"/>
<path d="M60.2797 182.92C60.2797 182.816 60.1757 182.4 60.0717 182.4C59.8637 182.4 59.5517 182.504 59.4477 182.608C59.3437 182.712 59.3437 183.232 59.6557 183.336C60.0717 183.544 60.1757 183.128 60.2797 182.92Z" fill="#42D4C6"/>
<path d="M80.0397 199.248C79.9357 200.08 80.6637 201.224 81.3917 201.328H81.4957C80.9757 201.744 80.8717 202.368 81.1837 202.992C81.4957 203.72 82.3277 204.136 82.8477 203.928C83.6797 203.512 84.1997 202.368 83.8877 201.536C83.6797 201.016 82.9517 200.808 82.3277 200.912C82.5357 200.704 82.7437 200.392 82.7437 200.08C82.9517 199.248 82.5357 198.624 81.5997 198.416C80.8717 198.312 80.1437 198.624 80.0397 199.248Z" fill="#42D4C6"/>
<path d="M81.7039 192.904C81.9119 192.8 82.0159 192.488 82.0159 192.28C82.0159 192.072 81.5999 191.656 81.3919 191.76C81.1839 191.864 81.0799 192.384 81.1839 192.592C81.1839 192.8 81.4959 193.008 81.7039 192.904Z" fill="#42D4C6"/>
<path d="M76.2963 178.656C76.4003 178.136 76.1923 177.72 75.6723 177.72C75.3603 177.72 75.0483 177.928 74.7363 178.032C74.6323 178.656 75.0483 179.176 75.5683 179.28C76.0883 179.384 76.1923 179.072 76.2963 178.656Z" fill="#42D4C6"/>
<path d="M83.368 195.192C83.68 195.088 83.576 194.568 83.576 194.464C83.576 194.36 83.264 194.152 83.056 194.256C82.848 194.36 82.848 194.672 82.848 194.88C82.744 194.88 83.056 195.296 83.368 195.192Z" fill="#42D4C6"/>
<path d="M88.5679 201.12C88.7759 200.912 88.4639 199.976 88.0479 199.872C87.5279 199.768 87.1119 200.08 86.9039 200.6C86.7999 201.016 87.1119 201.536 87.5279 201.536C88.0479 201.432 88.3599 201.328 88.5679 201.12Z" fill="#42D4C6"/>
<path d="M84.8239 206.424C84.8239 206.528 84.8239 206.528 84.8239 206.424C84.3039 206.112 83.5759 206.008 82.7439 206.216C81.8079 206.528 81.3919 207.36 81.5999 208.296C81.9119 209.336 83.1599 210.064 84.0959 209.752C84.1999 209.752 84.3039 209.648 84.4079 209.648C84.6159 209.856 84.9279 210.064 85.3439 209.856C86.6959 209.024 85.6559 207.984 85.9679 207.568C86.1759 207.36 86.6959 207.152 87.2159 206.944C87.5279 207.672 88.1519 207.984 88.9839 207.672C90.0239 207.36 90.4399 206.528 90.0239 205.384C89.8159 204.656 89.0879 204.136 88.3599 204.24C88.2559 204.136 88.1519 204.032 88.0479 203.928C87.1119 203.096 86.0719 203.304 85.3439 204.032C84.4079 205.176 85.6559 206.008 84.8239 206.424Z" fill="#42D4C6"/>
<path d="M64.0241 203.72C63.6081 204.032 63.4001 204.552 63.8161 204.968C64.2321 205.384 64.3361 205.8 64.4401 206.424C64.6481 207.672 65.6881 208.296 66.8321 207.984C67.1441 207.984 67.4561 207.984 67.4561 207.984C67.6641 208.088 67.7681 208.192 67.9761 208.192C67.3521 208.608 66.9361 209.44 67.1441 210.064C67.3521 210.584 68.3921 211 69.1201 210.688C69.8481 210.48 70.2641 209.752 69.9521 209.128C69.7441 208.504 69.1201 208.088 68.6001 207.984C68.7041 207.984 68.7041 207.88 68.8081 207.88C69.2241 207.464 69.0161 207.048 68.8081 206.632C68.6001 206.216 68.2881 205.696 68.0801 205.28C67.9761 205.072 67.7681 204.864 67.6641 204.656C67.9761 204.448 68.3921 204.136 68.2881 203.824C68.1841 203.304 67.3521 203.304 66.9361 202.992C66.8321 203.096 66.7281 203.096 66.6241 203.2C66.3121 203.72 66.4161 203.928 66.5201 204.24C66.4161 204.136 66.3121 204.136 66.2081 204.032C65.4801 202.888 65.0641 202.888 64.0241 203.72Z" fill="#42D4C6"/>
<path d="M89.4002 208.712C89.1922 209.44 89.5042 210.168 90.2322 210.272C91.0642 210.48 92.0002 210.064 92.2082 209.44C92.2082 209.856 93.0402 210.376 93.5602 210.272C93.9762 210.272 94.2882 209.856 94.1842 209.336C94.0802 208.504 93.6642 207.984 93.2482 208.088C92.9362 208.088 92.4162 208.712 92.3122 209.128C92.3122 208.4 91.7922 207.672 91.1682 207.464C90.5442 207.256 89.6082 207.984 89.4002 208.712Z" fill="#42D4C6"/>
<path d="M64.9602 209.544C65.6882 210.48 66.3122 211.416 67.0402 212.352C67.1442 211.624 67.0402 211.104 66.7282 210.584C66.4162 210.064 65.6882 209.648 64.9602 209.544Z" fill="#42D4C6"/>
<path d="M58.9282 199.248C59.0322 199.144 59.0322 199.144 59.1362 199.04C59.4482 198.52 59.5522 197.896 59.3442 197.376C60.1762 197.272 61.2162 196.544 61.4242 195.816C61.6322 195.088 60.8002 193.736 59.9682 193.424C59.1362 193.112 58.3042 193.632 58.0962 194.568C57.8882 195.296 57.8882 195.92 57.9922 196.336C57.8882 196.336 57.8882 196.336 57.7842 196.336C58.2002 197.376 58.5122 198.312 58.9282 199.248Z" fill="#42D4C6"/>
<path d="M89.9204 214.017C90.3364 214.121 90.7524 213.809 90.8564 213.289C90.9604 212.769 90.5444 212.561 90.2324 212.457C89.9204 212.457 89.0884 212.457 88.9844 212.977C88.9844 213.497 89.6084 214.017 89.9204 214.017Z" fill="#42D4C6"/>
<path d="M72.1358 210.48C71.5118 211.208 72.3438 211.624 72.4478 212.144C72.5518 212.664 73.0718 213.288 73.7998 213.184C74.5278 213.08 75.2558 212.664 75.5678 212.768C75.6718 212.768 75.6718 212.768 75.7758 212.872C75.6718 213.08 75.6718 213.392 75.7758 213.704C75.8798 213.912 75.9838 214.224 76.1918 214.432C76.2958 214.848 76.7118 215.264 77.4398 215.472C78.5838 215.888 79.7278 214.952 79.5198 214.12C79.3118 213.288 78.7918 213.184 78.8958 212.976C78.9998 212.664 79.6238 212.248 79.4158 211.728C79.2078 211.208 77.5438 211.104 77.2318 211.312C76.9198 211.52 76.3998 212.04 76.0878 211.624C75.6718 211.208 75.5678 210.48 74.9438 210.272C74.1118 210.168 72.7598 209.752 72.1358 210.48Z" fill="#42D4C6"/>
<path d="M74.6321 203.2C74.4241 203.408 74.3201 203.72 74.2161 203.824C74.5281 204.448 75.0481 204.656 75.3601 204.448C75.5681 204.24 75.7761 203.824 75.7761 203.616C75.7761 203.2 74.9441 202.888 74.6321 203.2Z" fill="#42D4C6"/>
<path d="M74.424 207.984C74.424 208.296 74.32 208.92 74.84 209.024C75.256 209.128 75.672 208.816 75.984 208.504C76.296 208.192 75.88 207.672 75.464 207.568C74.84 207.256 74.424 207.568 74.424 207.984Z" fill="#42D4C6"/>
<path d="M85.8642 214.224C86.3842 213.912 86.5922 213.392 86.3842 212.872C86.1762 212.352 85.7602 212.352 85.2402 212.456C84.7202 212.664 84.4082 213.288 84.6162 213.704C84.8242 214.224 85.3442 214.432 85.8642 214.224Z" fill="#42D4C6"/>
<path d="M90.4402 214.536C90.0242 214.12 89.6082 213.6 88.9842 214.12C88.4642 214.536 88.6722 215.16 88.9842 215.576C89.8162 215.68 90.3362 215.472 90.4402 214.536Z" fill="#42D4C6"/>
<path d="M70.1603 198C69.9523 197.48 69.4323 197.272 69.0163 197.376C68.2883 197.48 68.2883 198.208 68.0803 198.936C68.4963 199.248 68.9123 199.456 69.2243 199.56C69.0163 199.768 68.8083 199.976 68.8083 200.288C68.6003 201.12 69.3283 202.368 70.1603 202.576C70.9923 202.784 71.9283 202.264 72.1363 201.432C72.4483 200.184 71.9283 199.144 70.9923 198.936C70.7843 198.936 70.4723 198.936 70.1603 198.936C70.2643 198.624 70.2643 198.312 70.1603 198Z" fill="#42D4C6"/>
<path d="M67.3521 150.368C67.3521 150.576 67.2481 150.992 67.5601 151.096C67.8721 151.2 68.1841 150.888 68.1841 150.784C68.1841 150.576 68.0801 150.368 67.9761 150.16C67.7681 150.16 67.3521 150.264 67.3521 150.368Z" fill="#42D4C6"/>
<path d="M117.48 214.536C117.688 214.016 117.48 213.808 116.44 213.392C115.712 213.704 115.92 214.744 116.336 214.952C116.752 215.16 117.376 214.848 117.48 214.536Z" fill="#42D4C6"/>
<path d="M124.968 212.56C125.176 212.04 124.76 211.312 123.928 211.416C123.2 211.728 123.408 212.768 123.824 212.976C124.24 213.184 124.864 212.976 124.968 212.56Z" fill="#42D4C6"/>
<path d="M102.816 203.824C102.92 203.824 103.336 203.616 103.336 203.408C103.336 203.2 103.128 202.888 103.024 202.888C102.816 202.888 102.4 202.888 102.296 203.304C102.192 203.72 102.712 203.824 102.816 203.824Z" fill="#42D4C6"/>
<path d="M55.6003 160.664C56.5363 160.872 57.5763 160.248 57.7843 159.416C57.9923 158.48 57.4723 157.44 56.6403 157.128C55.9123 156.92 55.0803 157.128 54.5603 157.544C54.4563 157.96 54.3523 158.48 54.2483 158.896C54.4563 159.728 54.9763 160.56 55.6003 160.664Z" fill="#42D4C6"/>
<path d="M74.3202 165.137C73.8002 164.929 72.8642 164.929 72.7602 165.969C72.6562 167.009 73.6962 167.841 74.5282 168.049C75.4642 168.257 76.9202 167.009 76.8162 165.865C76.8162 165.449 76.5042 165.241 76.1922 165.137C76.0882 164.929 75.7762 164.825 75.6722 164.825C75.5682 164.825 75.2562 164.929 75.1522 165.137C75.1522 165.241 75.1522 165.241 75.2562 165.345C74.7362 165.657 74.8402 165.449 74.3202 165.137Z" fill="#42D4C6"/>
<path d="M64.024 160.56C64.856 160.768 65.48 160.248 65.688 159.312C65.896 158.376 65.48 157.648 64.544 157.544C63.712 157.336 62.88 157.96 62.672 158.896C62.568 159.416 63.192 160.352 64.024 160.56Z" fill="#42D4C6"/>
<path d="M69.0158 187.08C68.2878 187.288 67.9758 187.808 68.2878 188.328C67.6638 188.744 67.0398 188.952 66.6238 189.368C66.2078 189.68 66.1038 190.616 66.2078 191.24C65.8958 190.928 65.5838 190.824 65.0638 190.72C64.0238 190.616 63.5038 190.72 63.0878 191.24C62.7758 191.344 62.4638 191.552 62.3598 191.864C62.2558 192.28 62.4638 192.696 62.7758 192.904C62.9838 193.528 63.5038 194.048 64.4398 194.256C64.5438 194.256 64.6478 194.256 64.6478 194.256C64.1278 194.464 63.7118 194.984 63.5038 195.4C63.3998 195.92 63.9198 196.648 64.5438 196.856C65.3758 197.064 65.9998 196.648 66.3118 195.712C66.5198 194.984 66.2078 194.152 65.5838 194.048C65.4798 194.048 65.4798 194.048 65.3758 194.048C65.8958 193.736 66.3118 193.32 66.4158 192.696C66.4158 192.488 66.4158 192.28 66.4158 192.072C67.0398 192.488 68.2878 192.592 68.9118 192.28C69.5358 191.864 69.8478 190.824 69.4318 189.992C69.2238 189.368 68.9118 188.952 69.3278 188.328C69.9518 187.808 69.5358 187.392 69.0158 187.08Z" fill="#42D4C6"/>
<path d="M78.7918 181.36C78.6878 181.984 79.2078 183.128 79.6238 183.232C80.3518 183.44 81.0798 183.024 81.2878 182.192C81.4958 181.568 80.9758 180.944 80.1438 180.736C79.5198 180.528 78.8958 180.736 78.7918 181.36Z" fill="#42D4C6"/>
<path d="M80.0403 166.696C80.1443 166.696 80.4563 166.592 80.5603 166.384C80.5603 166.176 80.3523 165.968 80.1443 165.864C80.0403 165.76 79.6243 165.864 79.5203 166.176C79.4163 166.488 79.9363 166.696 80.0403 166.696Z" fill="#42D4C6"/>
<path d="M77.44 186.769C77.544 186.665 77.544 186.561 77.648 186.457C77.752 186.041 77.232 185.521 76.608 185.417C75.88 185.313 75.256 185.625 75.152 186.249C75.048 186.769 75.464 187.289 75.984 187.393C75.88 187.601 75.776 187.913 75.672 188.329C75.672 188.849 75.672 189.265 75.256 189.681C74.736 190.305 74.944 191.033 75.048 191.761C75.152 192.385 75.984 192.905 76.712 192.905C76.816 192.905 76.816 192.905 76.92 192.905C76.504 193.113 76.192 193.529 76.192 193.945C76.088 194.569 76.608 195.089 77.44 195.401C78.064 195.609 79 195.193 79.104 194.673C79.312 193.945 78.688 192.905 78.064 192.697C77.96 192.697 77.856 192.697 77.752 192.697C77.96 192.489 78.168 192.281 78.272 191.969C78.584 191.241 78.48 190.513 78.376 189.785C78.272 189.577 78.272 189.161 78.376 188.953C78.792 187.705 78.48 187.081 77.44 186.769Z" fill="#42D4C6"/>
<path d="M63.7121 138.616C64.1281 138.72 64.7521 138.512 64.8561 137.992C65.0641 137.472 64.7521 136.848 64.3361 136.848C63.8161 136.744 63.4001 136.952 63.1921 137.472C62.8801 137.888 63.1921 138.512 63.7121 138.616Z" fill="#42D4C6"/>
<path d="M55.392 165.656C55.912 165.032 55.808 164.512 54.56 163.368C54.976 162.848 55.496 162.328 54.768 161.704C54.456 161.392 54.144 161.288 53.832 161.392C53.624 162.952 53.416 164.512 53.208 166.176C53.936 166.384 54.976 166.176 55.392 165.656Z" fill="#42D4C6"/>
<path d="M60.176 201.64C60.696 202.576 61.112 203.512 61.632 204.448C61.736 204.344 61.944 204.136 62.048 203.616C62.36 202.472 61.216 201.224 60.176 201.64Z" fill="#42D4C6"/>
<path d="M66.3119 177.824C65.3759 177.72 64.4399 178.24 64.2319 179.072C64.0239 179.904 64.2319 180.632 64.7519 181.048C64.3359 181.152 64.0239 181.36 63.7119 181.776C62.9839 182.92 63.1919 183.96 63.8159 184.48C64.2319 184.792 65.1679 184.792 65.7919 184.584C65.7919 185.104 65.9999 185.416 66.5199 185.624C67.0399 185.728 67.5599 185.416 67.6639 184.792C67.7679 184.272 67.4559 183.648 66.9359 183.544C66.8319 183.544 66.8319 183.544 66.7279 183.544C66.9359 182.712 66.6239 182.088 66.1039 181.672L65.9999 181.568C66.6239 181.464 67.0399 180.944 67.2479 180.112C67.3519 179.8 67.3519 179.488 67.3519 179.28C67.5599 179.384 67.7679 179.384 68.0799 179.28C68.4959 179.176 68.7039 178.76 68.7039 178.344C68.8079 178.552 68.9119 178.864 69.0159 178.864C69.3279 178.968 69.8479 178.344 70.0559 178.136C70.2639 177.72 70.0559 177.304 69.5359 177.2C69.0159 176.992 68.7039 177.304 68.7039 177.72C68.7039 177.72 68.7039 177.616 68.5999 177.616C68.2879 177.096 67.5599 176.68 66.9359 176.784C66.5199 176.784 66.3119 177.616 66.3119 177.824Z" fill="#42D4C6"/>
<path d="M67.5601 163.16C67.5601 163.264 67.5601 163.576 67.7681 163.68C67.9761 163.68 68.2881 163.576 68.3921 163.472C68.4961 163.368 68.3921 162.848 68.1841 162.744C67.9761 162.536 67.6641 162.952 67.5601 163.16Z" fill="#42D4C6"/>
<path d="M99.0719 196.648C98.6559 196.752 98.4479 197.168 98.5519 197.584C98.6559 198.104 99.0719 198.312 99.4879 198.208C100.008 198.104 100.32 197.48 100.112 197.064C99.9039 196.544 99.4879 196.44 99.0719 196.648Z" fill="#42D4C6"/>
<path d="M91.6879 182.504C90.8559 182.4 89.9199 182.92 89.7119 183.752C89.3999 184.792 90.0239 185.832 91.0639 186.04C91.9999 186.248 92.7279 185.832 92.9359 185C93.2479 184.064 92.5199 182.712 91.6879 182.504Z" fill="#42D4C6"/>
<path d="M95.7443 179.385C95.4323 179.489 95.3283 180.113 95.4323 180.321C95.5363 180.529 95.9523 180.633 96.1603 180.633C96.3683 180.529 96.5763 180.113 96.4723 179.905C96.4723 179.697 96.0563 179.281 95.7443 179.385Z" fill="#42D4C6"/>
<path d="M95.9521 202.785C96.1601 202.785 96.5761 202.785 96.6801 202.473C96.7841 202.057 96.4721 201.849 96.2641 201.745C96.0561 201.641 95.4321 201.537 95.3281 202.057C95.2241 202.577 95.7441 202.681 95.9521 202.785Z" fill="#42D4C6"/>
<path d="M90.44 171.585C89.608 171.377 88.048 172.313 87.84 173.145C87.632 173.977 88.36 175.121 89.4 175.329C90.336 175.537 91.48 174.809 91.688 173.977C91.896 172.833 91.272 171.689 90.44 171.585Z" fill="#42D4C6"/>
<path d="M94.1841 192.176C94.0801 192.176 93.9761 192.384 93.8721 192.488C93.8721 192.384 93.7681 192.384 93.7681 192.384C93.2481 192.072 92.1041 192.904 92.2081 193.32C92.3121 193.736 93.3521 194.048 93.8721 193.736C94.1841 194.152 95.0161 194.152 95.3281 193.632C95.4321 193.32 95.0161 192.8 94.8081 192.384C94.7041 192.28 94.6001 192.072 94.1841 192.176Z" fill="#42D4C6"/>
<path d="M112.592 201.224C111.76 201.328 111.552 201.64 111.448 202.68C110.928 203.096 110.408 203.512 109.992 203.928C109.576 204.344 109.888 205.072 110.512 205.072C111.24 204.968 111.968 205.176 112.592 204.552C112.592 204.24 112.592 203.928 112.696 203.512C113.528 202.992 113.944 202.264 113.736 201.744C113.424 201.328 113.008 201.12 112.592 201.224Z" fill="#42D4C6"/>
<path d="M82.3282 188.952C81.6002 189.16 81.4962 190.2 81.8082 190.72C82.1202 191.24 83.0562 191.24 83.4722 190.512C83.6802 190.2 83.5762 189.576 83.3682 189.368C83.2642 188.952 82.6402 188.848 82.3282 188.952Z" fill="#42D4C6"/>
<path d="M84.512 181.984C83.992 181.776 83.472 181.984 83.264 182.4C83.16 182.608 83.16 183.128 83.264 183.336C83.576 183.856 83.992 183.856 85.032 183.44C85.136 183.024 85.344 182.296 84.512 181.984Z" fill="#42D4C6"/>
<path d="M56.5361 193.008C56.6401 193.424 56.7441 193.736 56.9521 194.152C56.9521 193.632 56.7441 193.32 56.5361 193.008Z" fill="#42D4C6"/>
<path d="M106.768 208.192C106.248 207.984 105.832 207.464 105.312 207.672C104.896 207.776 104.792 207.984 104.688 208.296C104.584 208.504 104.376 208.712 104.376 209.232C104.376 209.648 104.688 210.48 105.208 210.896C105.832 211.208 106.352 211.208 106.872 210.896C107.392 210.584 107.496 210.064 107.496 209.648C107.392 209.128 107.184 208.504 106.768 208.192Z" fill="#42D4C6"/>
<path d="M82.0159 186.04C81.4959 185.936 80.9759 186.248 80.7679 186.768C80.6639 187.392 80.8719 187.912 81.3919 188.016C81.9119 188.12 82.5359 187.912 82.6399 187.392C82.8479 186.872 82.5359 186.248 82.0159 186.04Z" fill="#42D4C6"/>
<path d="M96.888 199.249C96.784 199.249 96.576 199.249 96.472 199.353C95.952 199.561 95.744 200.185 95.952 200.705C96.16 201.225 96.784 201.537 97.2 201.433C97.512 201.329 97.928 200.809 98.032 200.393C98.24 200.289 98.448 200.185 98.448 199.977C98.656 199.249 98.552 198.729 97.72 198.625C97.304 198.625 96.992 198.937 96.888 199.249Z" fill="#42D4C6"/>
<path d="M109.264 197.48C108.64 197.688 108.12 198.416 108.432 198.832C108.64 199.248 110.304 199.248 110.616 198.728C110.928 198.312 109.888 197.376 109.264 197.48Z" fill="#42D4C6"/>
<path d="M107.808 200.392C107.496 200.496 107.496 200.808 107.6 200.912C107.704 201.12 107.912 201.432 108.224 201.328C108.536 201.224 108.432 200.704 108.432 200.6C108.328 200.496 108.12 200.288 107.808 200.392Z" fill="#42D4C6"/>
<path d="M98.8642 190.2C98.6562 190.2 98.2402 190.408 98.0322 190.616C97.8242 191.032 98.1362 191.448 98.4482 191.552C98.7602 191.552 99.4882 191.552 99.5922 191.032C99.8002 190.408 99.0722 190.2 98.8642 190.2Z" fill="#42D4C6"/>
<path d="M101.048 212.768C100.84 212.976 100.84 213.288 101.048 213.392C101.152 213.6 101.672 213.6 101.88 213.496C102.088 213.392 101.984 212.976 101.776 212.768C101.568 212.664 101.152 212.56 101.048 212.768Z" fill="#42D4C6"/>
<path d="M99.5918 201.328C98.8638 201.64 98.6558 202.16 98.9678 203.096C99.2798 203.824 99.9038 204.032 100.736 203.616C101.36 203.408 101.672 202.888 101.464 202.368C101.36 201.848 100.112 201.12 99.5918 201.328Z" fill="#42D4C6"/>
<path d="M87.5279 190.512C87.4239 190.928 88.2559 191.448 88.9839 191.344C89.7119 191.24 89.7119 190.2 89.5039 189.784C89.2959 189.472 87.6319 190.096 87.5279 190.512Z" fill="#42D4C6"/>
<path d="M56.4318 164.928C56.2238 165.552 56.9518 166.28 57.6798 166.384C58.5118 166.488 59.1358 166.072 59.3438 165.24C59.5518 164.408 59.1358 163.68 58.5118 163.576C57.6798 163.472 56.6398 164.096 56.4318 164.928Z" fill="#42D4C6"/>
<path d="M58.9279 162.328C58.7199 162.952 59.2399 163.888 59.8639 164.2C60.3839 164.408 61.1119 164.096 61.2159 163.472C61.4239 162.848 61.0079 162.016 60.2799 161.808C59.6559 161.6 59.1359 161.808 58.9279 162.328Z" fill="#42D4C6"/>
<path d="M56.0158 154.84C56.2238 154.84 56.6398 154.528 56.7438 154.216C56.8478 153.904 56.7438 153.488 56.3278 153.488C56.2238 153.488 56.0158 153.488 55.8078 153.592C55.7038 153.904 55.5998 154.216 55.4958 154.528C55.5998 154.632 55.9118 154.84 56.0158 154.84Z" fill="#42D4C6"/>
<path d="M61.8399 145.272C61.3199 145.168 60.6959 145.48 60.4879 145.896C60.3839 146.312 60.6959 146.936 61.1119 147.04C61.5279 147.144 62.2559 146.832 62.4639 146.416C62.5679 146 62.2559 145.376 61.8399 145.272Z" fill="#42D4C6"/>
<path d="M117.272 209.44C117.064 209.544 116.648 209.752 116.752 209.96C116.856 210.272 117.272 210.272 117.376 210.168C117.584 210.064 117.896 209.96 117.792 209.648C117.688 209.336 117.376 209.44 117.272 209.44Z" fill="#42D4C6"/>
<path d="M71.3042 152.448C70.8882 152.76 70.7842 153.28 71.0962 153.8C71.3042 154.216 71.6162 154.424 72.0322 154.32C72.7602 154.112 72.8642 153.592 72.9682 152.864C72.3442 152.448 71.9282 151.928 71.3042 152.448Z" fill="#42D4C6"/>
<path d="M72.0321 192.696C71.5121 192.592 70.7841 193.008 70.7841 193.528C70.6801 194.048 71.2001 194.672 71.7201 194.776C72.2401 194.88 72.8641 194.464 72.9681 194.048C72.9681 193.424 72.6561 192.8 72.0321 192.696Z" fill="#42D4C6"/>
<path d="M81.6003 173.872C81.3923 173.872 81.0803 173.976 80.9763 174.184C80.8723 174.392 81.1843 174.704 81.2883 174.808C81.4963 174.912 82.0163 174.808 82.1203 174.6C82.1203 174.288 81.7043 173.872 81.6003 173.872Z" fill="#42D4C6"/>
<path d="M71.6162 182.921C70.8882 182.817 69.8482 183.545 69.6402 184.377C69.4322 185.001 69.8482 185.625 70.6802 185.833C71.6162 186.041 72.2402 185.729 72.4482 184.689C72.5522 183.857 72.2402 183.025 71.6162 182.921Z" fill="#42D4C6"/>
<path d="M77.5441 173.56C77.2321 173.56 76.9201 173.768 76.6081 173.872C76.5041 174.496 76.9201 175.016 77.4401 175.12C77.9601 175.224 78.0641 174.912 78.1681 174.496C78.2721 173.976 77.9601 173.56 77.5441 173.56Z" fill="#42D4C6"/>
<path d="M71.512 169.712C70.992 169.504 70.472 169.712 70.16 170.336C69.952 170.648 69.848 171.064 69.536 171.272C69.016 171.688 68.704 172.208 68.808 172.832C68.912 173.352 70.16 173.872 70.68 173.768C71.2 173.664 71.824 173.56 71.824 172.728C71.824 172.104 71.928 171.584 71.928 170.96C72.344 170.44 72.032 169.92 71.512 169.712Z" fill="#42D4C6"/>
<path d="M62.0483 150.784C61.6323 150.68 61.2163 150.888 61.2163 151.304C61.2163 151.72 61.3203 152.552 61.7363 152.656C62.1523 152.76 62.6723 152.032 62.7763 151.72C62.8803 151.304 62.4643 150.784 62.0483 150.784Z" fill="#42D4C6"/>
<path d="M69.3282 168.776C69.1202 168.672 68.6002 168.776 68.4962 168.984C68.3922 169.192 68.8082 169.608 69.0162 169.608C69.2242 169.608 69.5362 169.608 69.6402 169.296C69.7442 169.192 69.4322 168.88 69.3282 168.776Z" fill="#42D4C6"/>
<path d="M65.0638 169.192C64.8558 169.608 65.1678 170.336 65.5838 170.336C65.8958 170.336 66.8318 170.232 66.9358 169.816C67.0398 169.296 66.4158 168.984 66.1038 168.88C65.7918 168.672 65.2718 168.776 65.0638 169.192Z" fill="#42D4C6"/>
<path d="M67.5602 141.113C66.8322 141.009 66.8322 141.737 66.6242 141.945C65.8962 142.569 65.8962 143.921 66.5202 144.337C67.1442 144.753 67.6642 144.649 68.2882 144.233C68.9122 143.817 68.9122 143.297 68.7042 142.673C68.4962 142.257 68.2882 141.113 67.5602 141.113Z" fill="#42D4C6"/>
<path d="M85.3441 193.736C84.6161 193.736 83.7841 194.568 83.5761 195.296C83.4721 195.712 83.5761 196.128 83.9921 196.336C85.0321 196.752 86.1761 196.96 87.3201 196.648C87.5281 196.544 87.7361 196.44 87.7361 196.336C88.5681 195.504 88.3601 194.464 87.3201 194.048C86.8001 193.84 86.0721 193.736 85.3441 193.736Z" fill="#42D4C6"/>
<path d="M93.144 214.016C92.416 214.432 92.104 214.952 92.312 215.368C92.52 215.784 93.56 215.992 93.976 215.784C94.288 215.576 94.496 214.64 94.288 214.224C94.08 213.808 93.56 213.704 93.144 214.016Z" fill="#42D4C6"/>
<path d="M100.944 207.153C100.632 206.529 99.5919 206.321 98.7599 206.633C98.0319 206.945 97.8239 207.569 98.2399 208.505C98.4479 209.025 99.2799 209.337 99.7999 209.233C100.424 208.921 101.152 207.569 100.944 207.153Z" fill="#42D4C6"/>
<path d="M94.2881 209.96C94.3921 209.856 94.6001 209.856 94.6001 209.752L94.4961 209.44C94.3921 209.44 94.1841 209.44 94.0801 209.544C94.0801 209.752 94.1841 209.856 94.2881 209.96Z" fill="#42D4C6"/>
<path d="M97.6161 210.376C97.3041 210.48 97.0961 210.584 96.8881 210.792C96.5761 210.272 96.4721 210.272 95.9521 210.168C95.5361 210.064 95.2241 210.272 95.1201 210.272C95.2241 210.688 95.0161 211.624 95.5361 211.832C95.8481 211.936 96.1601 211.728 96.3681 211.52C96.3681 211.728 96.3681 211.832 96.3681 212.04C96.5761 212.56 97.7201 212.976 98.3441 212.664C98.7601 212.456 99.0721 211.312 98.8641 210.896C98.7601 210.48 98.1361 210.168 97.6161 210.376Z" fill="#42D4C6"/>
<path d="M96.7842 203.72C96.2642 203.824 95.8482 203.72 95.4322 203.512C95.2242 203.408 94.7042 203.72 94.6002 204.032C94.4962 204.24 94.4962 204.76 94.6002 204.968C94.7042 205.176 95.1202 205.28 95.4322 205.176C95.9522 205.072 96.4722 204.864 96.8882 204.76C97.3042 204.656 97.4082 204.344 97.2002 203.824C97.0962 203.824 96.8882 203.72 96.7842 203.72Z" fill="#42D4C6"/>
<path d="M63.1922 200.184C62.8802 200.704 63.2962 201.432 64.0242 201.536C64.3362 201.536 64.7522 201.016 64.6482 200.496C64.5442 199.976 63.5042 199.664 63.1922 200.184Z" fill="#42D4C6"/>
<path d="M70.4721 214.12C70.4721 213.704 70.2641 213.288 69.8481 213.184C69.5361 213.184 69.0161 213.184 68.8081 213.392C68.7041 213.288 68.4961 213.288 68.3921 213.184C68.1841 213.184 67.9761 213.08 67.8721 213.08C69.1201 214.64 70.4721 216.096 71.9281 217.552C72.3441 217.656 72.8641 217.552 73.1761 217.344C73.2801 217.864 73.8001 218.28 74.4241 218.384C75.3601 218.592 75.8801 218.176 76.0881 217.136C76.2961 216.304 75.8801 215.472 75.2561 215.368C74.7361 215.264 74.1121 215.576 73.5921 215.992C73.3841 215.16 72.7601 214.952 72.7601 214.744C72.7601 214.536 73.2801 213.6 72.5521 213.288C71.3041 212.872 70.8881 213.808 70.4721 214.12Z" fill="#42D4C6"/>
<path d="M53 171.688C53.208 171.48 53.312 171.168 53.312 170.752C53.312 170.232 53.208 169.608 53.104 169.088C53 169.92 53 170.856 53 171.688Z" fill="#42D4C6"/>
<path d="M53.1041 174.184C53.6241 173.976 53.7281 173.456 53.8321 172.728C53.5201 172.624 53.3121 172.416 53.1041 172.312C53.0001 172.936 53.0001 173.56 53.1041 174.184Z" fill="#42D4C6"/>
<path d="M62.4642 196.856C61.9442 196.752 61.4242 197.064 61.3202 197.688C61.2162 198.208 61.4242 198.728 61.9442 198.832C62.4642 198.936 63.1922 198.416 63.1922 197.896C63.2962 197.48 62.9842 196.96 62.4642 196.856Z" fill="#42D4C6"/>
<path d="M56.744 178.136C56.12 178.344 55.808 178.656 55.6 179.072C55.496 179.072 55.392 178.968 55.392 178.968C54.56 178.76 54.04 179.072 53.624 179.696C53.832 181.464 54.144 183.128 54.456 184.896C54.56 185 54.768 185 54.976 185C55.496 184.896 55.808 184.272 55.808 183.544C56.432 183.336 57.056 182.816 57.264 182.192C57.368 181.88 57.264 181.568 57.16 181.152C57.264 181.152 57.368 181.152 57.472 181.152C58.2 181.152 59.136 180.112 59.032 179.384C58.824 178.76 57.68 177.824 56.744 178.136Z" fill="#42D4C6"/>
<path d="M72.2399 203.928C71.3039 203.72 70.0559 204.344 69.9519 205.28C69.7439 206.32 70.3679 207.464 71.3039 207.672C71.5119 207.672 71.6159 207.776 71.8239 207.776C71.8239 207.88 71.9279 207.984 71.9279 208.088C72.1359 208.4 72.5519 209.024 72.9679 208.816C73.3839 208.608 73.3839 207.776 73.2799 207.464C73.2799 207.36 73.1759 207.256 72.9679 207.152C73.0719 206.944 73.2799 206.632 73.2799 206.32C73.6959 204.968 73.2799 204.136 72.2399 203.928Z" fill="#42D4C6"/>
<path d="M57.5758 174.184C57.3678 174.912 57.8878 175.536 58.8238 175.64C59.3438 175.744 60.1758 175.224 60.2798 174.704C60.3838 174.08 59.7598 172.728 59.2398 172.624C58.5118 172.624 57.7838 173.352 57.5758 174.184Z" fill="#42D4C6"/>
<path d="M60.2799 168.88C60.1759 168.88 60.1759 168.776 60.0719 168.776C59.5519 168.672 58.9279 169.088 58.8239 169.504C58.7199 170.024 59.1359 170.648 59.6559 170.856C60.1759 170.96 60.5919 170.648 60.6959 170.232C60.6959 170.232 60.7999 170.232 60.7999 170.336C61.3199 170.44 61.9439 170.128 62.1519 169.712C62.3599 169.192 61.9439 168.672 61.4239 168.464C61.0079 168.152 60.4879 168.36 60.2799 168.88Z" fill="#42D4C6"/>
<path d="M62.5678 159.936C62.1518 159.832 61.7358 160.768 61.7358 160.872C61.8398 161.288 61.9438 161.912 62.4638 162.016C62.9838 162.12 63.1918 161.6 63.1918 161.392C63.0878 161.08 62.8798 160.04 62.5678 159.936Z" fill="#42D4C6"/>
<path d="M57.0558 177.2C57.2638 177.408 57.6798 177.408 57.7838 177.304C57.9918 177.096 58.3038 176.68 58.3038 176.368C58.1998 175.744 57.6798 175.744 57.1598 175.744C56.7438 176.264 56.6398 176.784 57.0558 177.2Z" fill="#42D4C6"/>
<path d="M63.8159 170.336C63.3999 170.336 62.9839 170.336 62.8799 170.856C62.8799 171.168 62.9839 172.104 63.3999 172.208C63.8159 172.312 64.2319 171.48 64.3359 171.168C64.5439 170.752 64.3359 170.44 63.8159 170.336Z" fill="#42D4C6"/>
<path d="M56.328 171.896C56.016 171.896 55.704 172.208 55.6 172.52C55.6 172.624 55.6 172.936 55.704 173.144C55.6 173.04 55.392 173.04 55.288 173.04C54.768 173.144 54.456 174.392 54.872 174.6C55.288 174.808 56.328 174.392 56.224 173.768C56.224 173.664 56.12 173.56 56.12 173.456C56.432 173.456 56.952 172.832 56.952 172.728C56.848 172.416 56.536 171.792 56.328 171.896Z" fill="#42D4C6"/>
<path d="M72.0322 195.088C70.9922 194.88 70.2642 195.088 70.0562 195.712C69.9522 195.712 69.9522 195.712 69.8482 195.712C69.3282 195.92 69.1202 196.336 69.2242 196.856C69.4322 197.48 70.2642 198 70.6802 197.792C70.7842 197.792 70.8882 197.584 70.9922 197.376C71.5122 197.48 72.4482 196.752 72.6562 196.128C72.8642 195.608 72.5522 195.192 72.0322 195.088Z" fill="#42D4C6"/>
<path d="M78.376 204.968C77.856 204.864 77.232 205.488 77.024 206.216C76.92 206.528 76.92 206.736 77.024 206.944H76.92C76.296 207.152 75.88 208.296 76.088 208.92C76.296 209.44 77.336 209.856 77.96 209.544C78.376 209.336 78.792 208.608 78.584 208.192C78.48 208.088 78.48 207.88 78.376 207.776C78.896 207.672 79.312 207.36 79.52 206.944C79.832 206.32 79.208 205.176 78.376 204.968Z" fill="#42D4C6"/>
<path d="M79.832 212.768C80.04 213.184 80.56 213.392 81.08 213.288C81.288 213.184 81.496 213.08 81.6 212.872C81.6 212.872 81.6 212.872 81.6 212.976C81.184 214.016 82.12 214.64 82.64 214.952C83.16 215.264 84.096 214.432 84.2 213.496C84.2 212.872 83.888 212.56 83.472 212.456C82.848 212.248 82.016 212.456 81.808 212.872C81.912 212.664 81.912 212.456 81.808 212.248C81.6 211.728 81.08 211.416 80.56 211.624C79.936 211.728 79.624 212.352 79.832 212.768Z" fill="#42D4C6"/>
<path d="M89.5043 194.464C89.2963 194.672 89.5043 195.088 89.6083 195.192C89.7123 195.296 90.1283 195.4 90.3363 195.296C90.5443 195.192 90.4403 194.776 90.3363 194.568C90.2323 194.568 89.7123 194.36 89.5043 194.464Z" fill="#42D4C6"/>
<path d="M112.072 211.936C111.968 211.208 111.656 210.896 110.928 210.896C110.096 210.896 109.472 211.624 109.472 212.56C109.472 213.496 109.992 213.496 109.992 214.12C109.992 214.64 110.304 214.848 110.824 215.056C111.344 215.264 112.28 215.472 112.488 214.64C112.696 213.808 112.176 213.6 111.968 213.6C111.76 213.6 111.448 213.184 111.656 213.08C111.864 212.976 112.176 212.664 112.072 211.936Z" fill="#42D4C6"/>
<path d="M89.8161 199.768C89.8161 200.184 90.0241 200.6 90.3361 200.808C90.6481 201.016 91.3761 200.6 91.3761 200.08C91.3761 199.768 91.1681 199.456 91.0641 199.248C90.3361 199.144 89.7121 199.352 89.8161 199.768Z" fill="#42D4C6"/>
<path d="M77.2323 202.784C77.0243 202.992 76.4003 203.408 76.6083 203.928C76.9203 204.448 77.6483 204.344 77.9603 204.24C78.3763 204.136 78.3763 203.616 78.2723 203.304C78.1683 202.784 77.5443 202.472 77.2323 202.784Z" fill="#42D4C6"/>
<path d="M69.6401 179.8C69.4321 180.424 69.8481 181.048 70.3681 181.152C70.8881 181.256 71.4081 180.84 71.5121 180.32C71.6161 179.8 71.4081 179.28 70.8881 179.176C70.2641 178.968 69.7441 179.28 69.6401 179.8Z" fill="#42D4C6"/>
<circle cx="57" cy="77" r="9" fill="#0077CC"/>
</g>
<defs>
<clipPath id="clip0">
<rect width="214" height="214" fill="white"/>
</clipPath>
</defs>
</svg>
